<?xml version="1.0" encoding="UTF-8" standalone="no"?>
<!-- Created with Sodipodi ("http://www.sodipodi.com/") -->

<svg
   xmlns:dc="http://purl.org/dc/elements/1.1/"
   xmlns:cc="http://creativecommons.org/ns#"
   xmlns:rdf="http://www.w3.org/1999/02/22-rdf-syntax-ns#"
   xmlns:svg="http://www.w3.org/2000/svg"
   xmlns="http://www.w3.org/2000/svg"
   xmlns:xlink="http://www.w3.org/1999/xlink"
   xmlns:sodipodi="http://sodipodi.sourceforge.net/DTD/sodipodi-0.dtd"
   xmlns:inkscape="http://www.inkscape.org/namespaces/inkscape"
   id="svg690"
   sodipodi:version="0.32"
   width="800"
   height="520"
   xml:space="preserve"
   sodipodi:docname="girl1.svg"
   inkscape:version="0.91 r"
   inkscape:output_extension="org.inkscape.output.svg.inkscape"
   version="1.0"><metadata
     id="metadata23"><rdf:RDF><cc:Work
         rdf:about=""><dc:format>image/svg+xml</dc:format><dc:type
           rdf:resource="http://purl.org/dc/dcmitype/StillImage" /><dc:title /></cc:Work></rdf:RDF></metadata><defs
     id="defs692"><inkscape:perspective
       sodipodi:type="inkscape:persp3d"
       inkscape:vp_x="0 : 526.18109 : 1"
       inkscape:vp_y="0 : 1000 : 0"
       inkscape:vp_z="744.09448 : 526.18109 : 1"
       inkscape:persp3d-origin="372.04724 : 350.78739 : 1"
       id="perspective25" /><linearGradient
       id="linearGradient705"><stop
         style="stop-color:#ffffff;stop-opacity:1;"
         offset="0"
         id="stop706" /><stop
         style="stop-color:#4c4c7a;stop-opacity:1;"
         offset="1"
         id="stop707" /></linearGradient><linearGradient
       id="linearGradient694"><stop
         style="stop-color:#c7f0ff;stop-opacity:1;"
         offset="0"
         id="stop695" /><stop
         style="stop-color:#ffffff;stop-opacity:1;"
         offset="1"
         id="stop696" /></linearGradient><linearGradient
       xlink:href="#linearGradient694"
       id="linearGradient697"
       x1="74.833076"
       y1="224.92026"
       x2="579.74213"
       y2="987.05554"
       gradientTransform="matrix(1.2403472,0,0,0.8062259,99.100189,-166.10214)"
       gradientUnits="userSpaceOnUse" /><linearGradient
       xlink:href="#linearGradient694"
       id="linearGradient700"
       x1="0.495"
       y1="0.9609375"
       x2="0.49000001"
       y2="-0.1796875" /><linearGradient
       xlink:href="#linearGradient694"
       id="linearGradient703"
       y2="572.83191"
       x2="201.4899"
       y1="52.162842"
       x1="645.30786"
       gradientTransform="scale(1.1616636,0.8608344)"
       gradientUnits="userSpaceOnUse" /><linearGradient
       xlink:href="#linearGradient694"
       id="linearGradient708"
       x1="183.00497"
       y1="837.26624"
       x2="177.1879"
       y2="346.11108"
       gradientTransform="matrix(2.2504214,0,0,0.4443612,99.100189,-166.10214)"
       gradientUnits="userSpaceOnUse" /><radialGradient
       xlink:href="#linearGradient705"
       id="radialGradient709"
       cx="459.01657"
       cy="291.24692"
       r="358.83459"
       fx="459.01657"
       fy="291.24692"
       gradientTransform="scale(1.1544482,0.8662147)"
       gradientUnits="userSpaceOnUse" /><linearGradient
       inkscape:collect="always"
       xlink:href="#linearGradient694"
       id="linearGradient2409"
       gradientUnits="userSpaceOnUse"
       gradientTransform="scale(1.1616636,0.8608344)"
       x1="645.30786"
       y1="52.162842"
       x2="201.4899"
       y2="572.83191" /><radialGradient
       inkscape:collect="always"
       xlink:href="#linearGradient705"
       id="radialGradient2411"
       gradientUnits="userSpaceOnUse"
       gradientTransform="scale(1.1544482,0.8662147)"
       cx="459.01657"
       cy="291.24692"
       fx="459.01657"
       fy="291.24692"
       r="358.83459" /><linearGradient
       inkscape:collect="always"
       xlink:href="#linearGradient694"
       id="linearGradient2413"
       gradientUnits="userSpaceOnUse"
       gradientTransform="matrix(2.2504214,0,0,0.4443612,99.100189,-166.10214)"
       x1="183.00497"
       y1="837.26624"
       x2="177.1879"
       y2="346.11108" /></defs><sodipodi:namedview
     id="base"
     showgrid="false"
     inkscape:zoom="0.33193016"
     inkscape:cx="341.58474"
     inkscape:cy="251.17823"
     inkscape:window-width="1355"
     inkscape:window-height="712"
     inkscape:window-x="0"
     inkscape:window-y="0"
     inkscape:current-layer="g2398"
     inkscape:window-maximized="1" /><g
     id="g2398"
     transform="scale(0.8066486,0.8066486)"><path
       d="m 485.68795,71.116301 c 26.60019,-2.924679 53.6781,-1.739006 79.93534,3.048919 22.71603,4.178141 45.0891,10.693761 65.56316,20.811632 42.78562,20.755198 77.14177,54.360968 101.34046,92.630458 0.30633,-0.11298 0.93119,-0.35006 1.24976,-0.46297 0.14703,0.63238 0.45335,1.90838 0.61262,2.54076 3.85955,7.84812 8.78505,15.23325 12.60783,23.12654 24.24759,47.81146 36.09589,101.09964 33.22879,153.85712 -1.11497,21.37626 -5.34221,42.52664 -11.84817,63.04472 -8.60126,1.15182 -17.28829,1.51316 -25.87729,2.64237 -0.34307,0.51945 -1.01695,1.55833 -1.36003,2.07779 -0.46559,-0.42909 -1.38453,-1.27603 -1.85012,-1.70514 -0.99257,0.0339 -3.00199,0.12411 -4.00657,0.15792 0.3063,-0.57592 0.90668,-1.71643 1.20075,-2.29232 9.87563,-1.27607 19.86143,-1.81808 29.77357,-2.95858 15.6097,-47.69853 14.98482,-99.04448 3.08764,-147.38665 C 758.09776,234.19902 736.11689,190.09143 703.67214,153.43673 674.32751,120.2036 634.84995,93.892613 589.83424,82.148665 542.00046,68.925423 489.7189,67.999462 442.03228,82.20509 c -45.11385,12.669909 -85.91457,37.0725 -118.34707,68.47629 -16.41824,16.3512 -31.91766,34.21556 -40.67832,55.20787 -8.83405,20.39383 -13.36749,42.09754 -16.70016,63.76739 -4.1536,30.89564 -4.39864,62.26557 -0.26956,93.18379 4.55793,29.29214 12.06873,59.46509 31.43993,83.72085 3.52873,4.92344 9.45893,8.36757 11.30905,14.25083 -11.48058,-8.1869 -19.34669,-19.96471 -25.6935,-31.81031 -0.57597,-1.1405 -1.07821,-2.28102 -1.59281,-3.41026 -9.81425,-19.27589 -14.51922,-40.36981 -17.81515,-61.32828 -4.53342,-31.75385 -4.11684,-64.02713 0.23292,-95.76972 3.55323,-23.08136 8.60127,-46.2079 18.58693,-67.73097 2.13193,-4.79923 4.98689,-9.27096 7.15559,-14.05887 l 0.79628,-1.51317 c 1.02934,-1.23086 2.30348,-2.25845 3.24691,-3.57964 13.31848,-18.72258 29.83485,-35.42384 48.09109,-50.14895 40.26185,-32.318468 90.63179,-54.609406 143.89354,-60.345875 z"
       id="path53"
       inkscape:connector-curvature="0" /><path
       d="m 442.03228,82.205325 c 47.68662,-14.205679 99.96818,-13.279719 147.80196,-0.05643 45.01571,11.743949 84.49327,38.05494 113.8379,71.28808 32.44475,36.65468 54.42562,80.76229 65.67355,126.81212 11.89718,48.3422 12.52206,99.6881 -3.08764,147.38665 -9.91228,1.1405 -19.89806,1.68254 -29.77357,2.95856 -0.29407,0.57592 -0.89445,1.71641 -1.20075,2.29234 -17.17802,47.45009 -53.81301,88.21517 -99.90693,114.28903 -1.78887,1.38893 -5.68516,1.56961 -5.35435,4.23459 -0.40432,-0.12411 -1.213,-0.36137 -1.61721,-0.4856 -44.32968,23.12657 -97.24812,31.71999 -147.54465,24.53813 -28.96492,-3.91843 -56.9374,-13.32489 -82.22657,-26.84174 -2.13193,-1.23086 -4.1536,-2.54074 -6.24878,-3.76032 -25.10538,-14.82673 -47.29466,-33.95582 -64.65645,-56.3258 -7.41278,-8.58214 -12.84063,-18.37252 -18.94238,-27.72252 -1.85014,-5.88328 -7.78035,-9.3274 -11.30906,-14.25085 -19.37133,-24.25576 -26.88212,-54.42872 -31.43993,-83.72083 -4.1291,-30.91824 -3.88404,-62.28815 0.26954,-93.1838 3.33269,-21.66984 7.86611,-43.37356 16.70018,-63.7674 8.76053,-20.99231 24.25995,-38.85668 40.67831,-55.20788 32.43226,-31.40378 73.2331,-55.806373 118.34683,-68.476295 m 52.09765,201.713725 c -25.65688,9.45163 -51.84047,17.64981 -78.09747,25.54313 -29.55317,8.5934 -59.24098,16.8932 -89.45554,23.26205 -11.35807,2.31491 -22.80203,4.55077 -34.44191,5.2396 -1.29864,-1.0276 -2.59753,-2.03261 -3.88392,-3.02632 -6.6041,44.11886 2.63428,90.11226 25.68124,129.23997 22.69164,38.41625 58.27304,70.33951 100.85049,89.73962 50.38231,23.13785 110.16215,27.90318 164.22021,13.52815 42.36929,-11.07772 80.81764,-34.06878 109.61103,-64.70469 35.67929,-37.34352 56.56968,-86.76979 56.61882,-136.57995 -31.03559,-8.05138 -61.33592,-18.29345 -91.34242,-29.13404 -21.5399,-8.34497 -43.12881,-16.68995 -63.6394,-27.06756 -22.27517,-11.15676 -44.25604,-23.70244 -61.47081,-41.11515 -10.83146,6.33499 -22.86342,10.5696 -34.65032,15.07519 z"
       id="path61"
       inkscape:connector-curvature="0"
       style="fill:#756a54" /><path
       d="m 228.64441,163.9952 c 12.11771,-4.57338 26.31838,-3.03762 37.4069,3.21829 8.08665,4.59594 15.35238,10.64859 20.62097,17.97728 l -0.7963,1.51316 c -5.66065,-5.12668 -10.45139,-11.13418 -17.15351,-15.1881 -10.96611,-7.55451 -26.04882,-10.33242 -38.92621,-5.51061 -15.78121,5.77035 -27.06577,18.5193 -35.34847,31.71996 -13.45337,22.05378 -20.4618,46.97582 -23.83125,71.94302 -3.72464,28.69365 -2.73229,57.95189 3.4676,86.29549 4.48428,19.7163 11.51722,39.18417 23.08371,56.38228 7.33925,10.61473 16.72468,20.59708 29.20997,26.17548 8.66264,4.02003 18.97912,4.79918 28.29102,2.30361 7.85387,-2.14553 14.83792,-6.44789 20.81702,-11.5407 1.20087,-0.95983 2.04616,-2.21329 2.23008,-3.69257 0.5146,1.12922 1.01696,2.26976 1.59282,3.41025 -8.95671,8.37886 -20.70673,15.10906 -33.78028,15.47043 -12.66908,0.66623 -24.82357,-4.76536 -33.97619,-12.54571 -7.95187,-6.33497 -13.7228,-14.49928 -19.43248,-22.5281 -5.01127,7.91592 -12.19136,15.8205 -22.34855,17.86439 -10.14508,1.91969 -19.51837,-4.29107 -25.31369,-11.38261 -11.0395,-13.6975 -16.51637,-30.38747 -20.20437,-46.89676 -5.79545,-27.50797 -6.24879,-55.90801 -2.09518,-83.64183 3.12427,-18.8016 8.1234,-37.87424 19.27318,-54.12383 5.02353,-7.22702 12.28927,-14.13789 21.89523,-15.54944 6.23653,-0.97112 12.14224,1.77289 17.20239,4.83311 3.32056,-8.79667 7.58442,-17.29977 12.70597,-25.31726 8.44187,-12.99741 19.73866,-25.48666 35.40962,-31.18923 m -78.45266,60.69592 c -8.99346,8.49179 -14.09038,19.68239 -18.12145,30.7714 -7.08195,20.5971 -9.9858,42.25566 -10.2186,63.8013 0.012,25.38503 3.03863,51.14265 12.77924,75.0371 3.82278,9.27096 8.90757,18.429 16.85945,25.29466 5.13392,4.43788 12.59557,7.12543 19.56725,5.05895 8.91982,-2.744 15.1686,-10.02752 19.50599,-17.39008 -3.46746,-7.83682 -7.93963,-15.44781 -10.76995,-23.58956 -14.66625,-39.80523 -16.96972,-82.99814 -10.04706,-124.38427 1.92352,-12.53442 5.91796,-24.65103 9.60598,-36.79021 -3.72478,-2.1681 -7.63333,-4.50562 -12.15438,-4.69757 -6.45719,-0.28232 -12.62019,2.69885 -17.00647,6.88828 z"
       id="path63"
       inkscape:connector-curvature="0"
       style="fill:#120d07" /><path
       d="m 760.36648,166.24235 c 10.6228,-2.98115 22.45884,-1.47929 32.08919,3.53447 11.03951,5.48804 19.50599,14.37507 26.41652,23.86058 5.19506,-3.13925 11.65201,-5.23963 17.86414,-3.50061 9.92452,2.55204 16.57763,10.61471 21.4909,18.49674 9.04235,15.25584 13.7228,32.36361 16.52862,49.4601 4.34952,27.39505 4.05545,55.49019 -1.17636,82.77227 -3.40608,16.67871 -8.49086,33.53806 -18.72171,47.83406 -5.63627,8.05139 -14.8379,14.80418 -25.7425,14.30731 -7.11883,14.21694 -16.67566,28.02738 -30.50873,37.44514 -9.22613,6.33494 -20.97629,9.83556 -32.49365,8.23207 -11.05175,-1.40024 -20.93953,-7.13671 -28.75663,-14.25084 0.34308,-0.51946 1.01696,-1.55834 1.36003,-2.07779 8.71154,8.4466 20.79251,14.67995 33.71891,14.37507 11.22316,-0.0224 21.67456,-5.09281 29.82259,-11.92465 14.89902,-12.48924 24.05166,-29.58571 30.92531,-46.77257 8.99334,-23.86054 13.22045,-49.13262 13.78406,-74.34825 0.80868,-28.82915 -3.02636,-57.90675 -12.80386,-85.35821 -6.22439,-16.2044 -14.29868,-32.25073 -27.10253,-44.97711 -7.36375,-7.29481 -16.57764,-13.57331 -27.35997,-15.53815 -10.47576,-2.1907 -21.68693,0.25972 -30.54537,5.69128 -7.29036,4.21202 -13.1103,10.12917 -18.55029,16.18184 -0.15928,-0.63238 -0.4656,-1.90838 -0.61263,-2.54076 7.62095,-9.42906 17.99881,-17.45786 30.37396,-20.90199 M 820.3546,195.67 c 18.19499,27.23693 25.68126,59.32955 28.43807,90.86885 2.21783,31.99098 -0.50236,64.58045 -10.88022,95.29543 -1.78886,6.48174 -5.26845,12.45538 -7.09408,18.90325 6.82452,-0.21461 13.0978,-3.34251 17.4842,-8.09657 10.39025,-10.71636 15.56081,-24.69618 19.57963,-38.33724 7.29024,-26.45777 8.63789,-54.06734 6.38355,-81.20268 -2.27896,-21.04878 -6.48157,-42.40243 -17.00647,-61.40732 -4.16586,-7.04638 -9.37317,-14.1605 -17.2394,-18.03375 -6.24878,-3.09409 -14.29867,-2.17942 -19.66528,2.01003 z"
       id="path65"
       inkscape:connector-curvature="0"
       style="fill:#120d07" /><path
       d="m 229.79614,166.00522 c 12.87737,-4.82181 27.96011,-2.0439 38.92621,5.51061 6.70212,4.05392 11.49285,10.06142 17.15351,15.1881 -2.16869,4.78793 -5.02365,9.25965 -7.15559,14.05887 -9.98566,21.52306 -15.03369,44.64963 -18.58693,67.731 -4.34964,31.74258 -4.76622,64.01583 -0.23291,95.76969 3.29604,20.95847 8.00089,42.0524 17.81514,61.3283 -0.18379,1.47928 -1.02921,2.73274 -2.23007,3.69257 -5.97911,5.09281 -12.96316,9.39517 -20.81701,11.5407 -9.31192,2.49557 -19.6284,1.71642 -28.29104,-2.30361 -12.48518,-5.5784 -21.87073,-15.56075 -29.20997,-26.17548 -11.56648,-17.19811 -18.59942,-36.66598 -23.08372,-56.38228 -6.19989,-28.3436 -7.19221,-57.60184 -3.46757,-86.29549 3.36943,-24.9672 10.37786,-49.88924 23.83124,-71.94302 8.28306,-13.20066 19.56749,-25.94961 35.34871,-31.71996 z"
       id="path67"
       inkscape:connector-curvature="0"
       style="fill:#756950" /><path
       d="m 749.15532,173.50326 c 8.85856,-5.43156 20.0696,-7.88198 30.54537,-5.69128 10.78221,1.96484 19.99622,8.24334 27.35996,15.53815 12.80386,12.72638 20.87813,28.77271 27.10253,44.97711 9.7775,27.45146 13.61253,56.52906 12.80388,85.35821 -0.56362,25.21563 -4.79074,50.48771 -13.78407,74.34825 -6.87366,17.18686 -16.02628,34.28333 -30.92532,46.77257 -8.1479,6.83184 -18.59941,11.90204 -29.8226,11.92465 -12.92639,0.30488 -25.00735,-5.92847 -33.71888,-14.37507 8.58899,-1.12921 17.27603,-1.49055 25.87728,-2.64237 6.50596,-20.51808 10.7332,-41.66846 11.84817,-63.04472 2.8671,-52.75748 -8.9812,-106.04566 -33.22879,-153.85712 -3.82278,-7.89329 -8.74828,-15.27842 -12.60783,-23.12654 5.44012,-6.05267 11.26006,-11.96982 18.5503,-16.18184 z"
       id="path69"
       inkscape:connector-curvature="0"
       style="fill:#756950" /><path
       d="m 820.3546,195.67 c 5.36661,-4.18945 13.4165,-5.10412 19.66516,-2.01003 7.86611,3.87325 13.07343,10.98737 17.2394,18.03375 10.52489,19.00489 14.7275,40.35854 17.00647,61.40732 2.25446,27.13534 0.9067,54.74491 -6.38355,81.20268 -4.01882,13.64106 -9.18938,27.62088 -19.57963,38.33724 -4.3864,4.75406 -10.65968,7.88201 -17.4842,8.09657 1.82563,-6.44787 5.30534,-12.42151 7.09408,-18.90325 10.37787,-30.71498 13.09805,-63.30445 10.88022,-95.29543 -2.75669,-31.5393 -10.24296,-63.63192 -28.43795,-90.86885 z"
       id="path71"
       inkscape:connector-curvature="0"
       style="fill:#756950" /><path
       d="m 150.19175,224.69112 c 4.3864,-4.18943 10.54941,-7.1706 17.00647,-6.88828 4.52105,0.19186 8.4296,2.52947 12.15438,4.69757 -3.68802,12.13918 -7.68232,24.25579 -9.60598,36.79021 -6.92266,41.38613 -4.61919,84.57904 10.04706,124.38427 2.83045,8.14175 7.30261,15.75274 10.76995,23.58956 -4.33739,7.36256 -10.58617,14.64608 -19.50599,17.39008 -6.97155,2.06648 -14.43333,-0.62107 -19.56725,-5.05895 -7.95188,-6.86566 -13.03667,-16.0237 -16.85945,-25.29466 -9.74074,-23.89445 -12.76698,-49.65207 -12.77924,-75.0371 0.23268,-21.54564 3.13653,-43.2042 10.2186,-63.8013 4.03107,-11.08901 9.12799,-22.27961 18.12145,-30.7714 z"
       id="path73"
       inkscape:connector-curvature="0"
       style="fill:#756950" /><path
       d="m 490.34566,283.91905 c 11.7869,-4.50563 23.81874,-8.74022 34.64996,-15.07519 17.21477,17.41267 39.19577,29.95836 61.47082,41.11515 20.51069,10.37758 42.0996,18.72258 63.63938,27.06755 30.00652,10.84059 60.30695,21.08267 91.34243,29.13405 -0.049,49.81016 -20.93953,99.2364 -56.61883,136.57992 -28.79339,30.63592 -67.24174,53.62697 -109.61102,64.70469 -54.05805,14.37505 -113.83791,9.60973 -164.22021,-13.52813 -42.57745,-19.40022 -78.15873,-51.32335 -100.8505,-89.7396 -23.04682,-39.12773 -32.28534,-85.12112 -25.68124,-129.24001 1.28639,0.99372 2.58528,1.99872 3.88393,3.02633 11.63988,-0.68881 23.08384,-2.92469 34.44191,-5.2396 30.21455,-6.36884 59.90236,-14.66866 89.45554,-23.26206 26.25748,-7.89332 52.44109,-16.09148 78.09783,-25.5431 m 88.73265,80.73967 c -2.40149,2.39398 -4.63146,4.92344 -6.72664,7.52065 -1.29863,3.35381 -2.67092,6.77537 -3.16114,10.32114 0.89443,3.15056 1.82562,6.32366 3.18565,9.33872 2.02167,2.64238 4.23936,5.16055 6.49382,7.65614 7.08184,4.64111 15.6097,7.53193 24.34573,7.66746 4.15361,-0.64368 8.36846,-1.09535 12.50982,-1.95357 3.89641,-1.52447 7.68231,-3.34252 11.32131,-5.34124 4.14134,-4.27977 8.33169,-8.87573 8.62576,-14.89449 7.48628,-3.04893 15.15635,-5.7026 22.72827,-8.54825 1.18862,-0.57592 3.7984,-1.15182 2.86721,-2.90211 -0.45334,-2.02133 -3.01425,-0.73401 -4.27612,-0.35006 -6.98405,2.58592 -13.89447,5.30736 -20.92741,7.74648 -0.39195,-3.01502 -1.99715,-6.08652 -1.58057,-9.03381 6.2489,-4.17814 12.79175,-8.01752 18.97926,-12.29728 1.94814,-1.21956 -0.2083,-3.90711 -2.00941,-2.67627 -6.75113,3.99747 -13.13481,8.51437 -19.82467,12.59088 -5.20733,-7.11412 -14.43346,-11.0664 -23.48806,-12.00366 -10.26735,-2.21331 -20.75563,1.7277 -29.06281,7.15927 m -209.15027,-4.14424 c 6.70212,4.85568 14.12714,8.87571 20.7925,13.75398 -3.68801,3.01503 -3.61448,7.88199 -5.37886,11.82299 -6.2365,-2.21328 -12.36276,-4.70887 -18.62379,-6.85441 -2.26672,-0.59849 -3.25917,2.56335 -1.00483,3.18443 6.73887,2.91339 13.96786,4.90085 20.60883,8.01751 1.164,5.3977 4.98664,9.54194 8.79717,13.60717 7.10647,4.62984 15.65871,7.54322 24.41938,7.62228 4.10459,-0.64366 8.27043,-1.09535 12.35051,-1.93097 3.92093,-1.51317 7.73147,-3.35379 11.38259,-5.36385 2.49951,-2.65367 4.91325,-5.43156 6.99618,-8.37884 0.8823,-2.99244 1.67858,-6.01879 2.19319,-9.07898 -0.44108,-3.3764 -1.27425,-6.69631 -2.22982,-9.95979 -3.03875,-3.59094 -5.68517,-7.90458 -10.34125,-9.85815 -3.51647,-1.59219 -6.75112,-4.00874 -10.78221,-4.33622 -4.7906,-0.49685 -9.59371,-2.30361 -14.39668,-1.06148 -3.78603,0.76787 -7.81711,0.99374 -11.13753,2.98115 -3.5776,2.04393 -7.92737,3.27478 -10.34099,6.65117 -7.376,-4.16684 -14.07813,-9.29355 -21.47864,-13.39263 -1.55619,-1.07277 -3.46746,1.68255 -1.82575,2.57464 m 96.32919,114.78587 c -0.41658,9.41774 4.03108,18.8016 11.23556,25.4076 9.91228,9.85813 24.39461,14.98483 38.74241,16.04629 13.03655,1.05018 25.75465,-3.79421 36.24291,-10.59212 8.3317,-5.77036 16.71242,-12.04888 21.69918,-20.67615 1.29889,-2.42785 2.70793,-5.23961 1.89914,-7.99495 -1.29888,-3.06019 -5.40336,-3.25215 -8.33169,-3.99744 -18.61145,-2.95858 -37.59057,-2.93597 -56.42267,-2.83436 -15.05845,0.67755 -30.55787,0.33875 -45.06484,4.64113 z"
       id="path83"
       inkscape:connector-curvature="0"
       style="fill:#feddae" /><path
       d="m 579.07831,364.65872 c 8.30718,-5.43157 18.79546,-9.37258 29.06292,-7.15927 9.05461,0.93726 18.28075,4.88954 23.48807,12.00366 6.68986,-4.07651 13.07342,-8.59341 19.82467,-12.59088 1.80111,-1.23084 3.95756,1.45671 2.00941,2.67627 -6.18751,4.27976 -12.73036,8.11914 -18.97926,12.29728 -0.41658,2.94729 1.18862,6.01879 1.58057,9.03381 7.03295,-2.43912 13.94336,-5.16056 20.92741,-7.74648 1.26189,-0.38395 3.82279,-1.67127 4.27612,0.35006 0.93119,1.75029 -1.6786,2.32619 -2.86721,2.90211 -7.57193,2.84565 -15.24199,5.49932 -22.72827,8.54825 -0.29405,6.01876 -4.4844,10.61472 -8.62576,14.89449 -3.63899,1.99872 -7.42489,3.81677 -11.32131,5.34124 -4.14135,0.85822 -8.3561,1.30989 -12.50982,1.95357 -8.73603,-0.13551 -17.2639,-3.02635 -24.34571,-7.66746 -2.2546,-2.49559 -4.47217,-5.01376 -6.49384,-7.65614 -1.36002,-3.01506 -2.29122,-6.18816 -3.18565,-9.33872 0.4901,-3.54577 1.86239,-6.96733 3.16115,-10.32114 2.09493,-2.59721 4.32502,-5.12667 6.72651,-7.52065 z"
       id="path111"
       inkscape:connector-curvature="0"
       style="fill:#0c0a00" /><path
       d="m 369.92804,360.51448 c -1.64183,-0.89209 0.26956,-3.64741 1.82564,-2.57464 7.40049,4.09908 14.10261,9.22579 21.47863,13.39263 2.41374,-3.37639 6.76338,-4.60724 10.34099,-6.65117 3.32043,-1.98741 7.35151,-2.21328 11.13753,-2.98115 4.80297,-1.24213 9.60608,0.56463 14.39669,1.06148 4.03106,0.32748 7.26585,2.74403 10.7822,4.33622 4.65595,1.95357 7.30249,6.26721 10.34124,9.85815 0.95558,3.26348 1.78887,6.58339 2.22983,9.95979 -0.51461,3.06019 -1.31089,6.08654 -2.19319,9.07898 -2.08293,2.94728 -4.49655,5.72517 -6.99619,8.37884 -3.65125,2.01006 -7.46177,3.85068 -11.38258,5.36385 -4.08007,0.83562 -8.24593,1.28731 -12.35053,1.93097 -8.76053,-0.0791 -17.31277,-2.99244 -24.41935,-7.62228 -3.81053,-4.06523 -7.63332,-8.20947 -8.79718,-13.60717 -6.64085,-3.11666 -13.86996,-5.10412 -20.60884,-8.01751 -2.25446,-0.62108 -1.26189,-3.78292 1.00482,-3.18443 6.26104,2.14554 12.38729,4.64113 18.62381,6.85441 1.7645,-3.941 1.69086,-8.80796 5.37886,-11.82299 -6.66524,-4.87827 -14.09026,-8.8983 -20.79238,-13.75398 z"
       id="path113"
       inkscape:connector-curvature="0"
       style="fill:#0c0a00" /><path
       d="m 466.25723,475.30035 c 14.50697,-4.30238 30.00639,-3.96358 45.06472,-4.64113 18.8321,-0.10159 37.81123,-0.12411 56.42266,2.83436 2.92835,0.74529 7.03294,0.93725 8.3317,3.99744 0.80867,2.75534 -0.60037,5.5671 -1.89914,7.99495 -4.98664,8.62727 -13.36736,14.90579 -21.69918,20.67615 -10.48827,6.79791 -23.20637,11.6423 -36.24291,10.59212 -14.34781,-1.06146 -28.83014,-6.18816 -38.74242,-16.04629 -7.20422,-6.606 -11.65201,-15.98986 -11.23543,-25.4076 z"
       id="path119"
       inkscape:connector-curvature="0"
       style="fill:#404040" /><path
       d="m 372.14575,560.16171 c 6.5796,-5.28477 14.72751,-8.46921 22.70388,-11.5407 25.28918,13.51685 53.26164,22.92329 82.22658,26.84172 50.29652,7.18188 103.21508,-1.41153 147.54465,-24.5381 0.40434,0.12411 1.213,0.36136 1.61721,0.48559 7.68232,3.12794 15.6832,6.93345 20.4863,13.55069 2.60978,3.48932 2.32786,8.40146 -0.37995,11.77784 -4.93774,6.34627 -12.80385,9.93718 -20.26563,13.17806 -11.93395,4.83311 -24.60304,7.91589 -37.32113,10.3889 -27.8622,5.12668 -56.33702,7.04637 -84.71382,6.93344 -29.57756,-0.2823 -59.30213,-2.58592 -88.1199,-8.93216 -14.10263,-3.36512 -28.42592,-7.29481 -40.5559,-14.95107 -4.43541,-2.99247 -9.06674,-6.88828 -9.64272,-12.21813 -0.2572,-4.44916 3.01422,-8.1869 6.42043,-10.97608 z"
       id="path139"
       inkscape:connector-curvature="0"
       style="fill:#ffffff" /><path
       enable-background="new    "
       d="m 388.31906,600.13634 c -1.70311,-1.51319 -1.37229,-5.74779 1.61721,-3.69258 -0.40423,1.27602 -0.94334,2.50688 -1.61721,3.69258 z"
       id="path151"
       inkscape:connector-curvature="0"
       style="opacity:0.62000002;fill:#434343" /></g></svg>