<?xml version="1.0" encoding="UTF-8" standalone="no"?>
<!-- Created with Sodipodi ("http://www.sodipodi.com/") -->

<svg
   xmlns:dc="http://purl.org/dc/elements/1.1/"
   xmlns:cc="http://creativecommons.org/ns#"
   xmlns:rdf="http://www.w3.org/1999/02/22-rdf-syntax-ns#"
   xmlns:svg="http://www.w3.org/2000/svg"
   xmlns="http://www.w3.org/2000/svg"
   xmlns:xlink="http://www.w3.org/1999/xlink"
   xmlns:sodipodi="http://sodipodi.sourceforge.net/DTD/sodipodi-0.dtd"
   xmlns:inkscape="http://www.inkscape.org/namespaces/inkscape"
   id="svg690"
   sodipodi:version="0.32"
   width="800"
   height="520"
   xml:space="preserve"
   sodipodi:docname="girl3.svg"
   inkscape:version="0.91 r"
   inkscape:output_extension="org.inkscape.output.svg.inkscape"
   version="1.0"><metadata
     id="metadata23"><rdf:RDF><cc:Work
         rdf:about=""><dc:format>image/svg+xml</dc:format><dc:type
           rdf:resource="http://purl.org/dc/dcmitype/StillImage" /><dc:title /></cc:Work></rdf:RDF></metadata><defs
     id="defs692"><inkscape:perspective
       sodipodi:type="inkscape:persp3d"
       inkscape:vp_x="0 : 526.18109 : 1"
       inkscape:vp_y="0 : 1000 : 0"
       inkscape:vp_z="744.09448 : 526.18109 : 1"
       inkscape:persp3d-origin="372.04724 : 350.78739 : 1"
       id="perspective25" /><linearGradient
       id="linearGradient705"><stop
         style="stop-color:#ffffff;stop-opacity:1;"
         offset="0"
         id="stop706" /><stop
         style="stop-color:#4c4c7a;stop-opacity:1;"
         offset="1"
         id="stop707" /></linearGradient><linearGradient
       id="linearGradient694"><stop
         style="stop-color:#c7f0ff;stop-opacity:1;"
         offset="0"
         id="stop695" /><stop
         style="stop-color:#ffffff;stop-opacity:1;"
         offset="1"
         id="stop696" /></linearGradient><linearGradient
       xlink:href="#linearGradient694"
       id="linearGradient697"
       x1="74.833076"
       y1="224.92026"
       x2="579.74213"
       y2="987.05554"
       gradientTransform="matrix(1.2403472,0,0,0.8062259,99.100189,-166.10214)"
       gradientUnits="userSpaceOnUse" /><linearGradient
       xlink:href="#linearGradient694"
       id="linearGradient700"
       x1="0.495"
       y1="0.9609375"
       x2="0.49000001"
       y2="-0.1796875" /><linearGradient
       xlink:href="#linearGradient694"
       id="linearGradient703"
       y2="572.83191"
       x2="201.4899"
       y1="52.162842"
       x1="645.30786"
       gradientTransform="scale(1.1616636,0.8608344)"
       gradientUnits="userSpaceOnUse" /><linearGradient
       xlink:href="#linearGradient694"
       id="linearGradient708"
       x1="183.00497"
       y1="837.26624"
       x2="177.1879"
       y2="346.11108"
       gradientTransform="matrix(2.2504214,0,0,0.4443612,99.100189,-166.10214)"
       gradientUnits="userSpaceOnUse" /><radialGradient
       xlink:href="#linearGradient705"
       id="radialGradient709"
       cx="459.01657"
       cy="291.24692"
       r="358.83459"
       fx="459.01657"
       fy="291.24692"
       gradientTransform="scale(1.1544482,0.8662147)"
       gradientUnits="userSpaceOnUse" /><linearGradient
       inkscape:collect="always"
       xlink:href="#linearGradient694"
       id="linearGradient2409"
       gradientUnits="userSpaceOnUse"
       gradientTransform="scale(1.1616636,0.8608344)"
       x1="645.30786"
       y1="52.162842"
       x2="201.4899"
       y2="572.83191" /><radialGradient
       inkscape:collect="always"
       xlink:href="#linearGradient705"
       id="radialGradient2411"
       gradientUnits="userSpaceOnUse"
       gradientTransform="scale(1.1544482,0.8662147)"
       cx="459.01657"
       cy="291.24692"
       fx="459.01657"
       fy="291.24692"
       r="358.83459" /><linearGradient
       inkscape:collect="always"
       xlink:href="#linearGradient694"
       id="linearGradient2413"
       gradientUnits="userSpaceOnUse"
       gradientTransform="matrix(2.2504214,0,0,0.4443612,99.100189,-166.10214)"
       x1="183.00497"
       y1="837.26624"
       x2="177.1879"
       y2="346.11108" /></defs><sodipodi:namedview
     id="base"
     showgrid="false"
     inkscape:zoom="0.33193016"
     inkscape:cx="341.58474"
     inkscape:cy="251.17823"
     inkscape:window-width="1355"
     inkscape:window-height="712"
     inkscape:window-x="0"
     inkscape:window-y="0"
     inkscape:current-layer="svg690"
     inkscape:window-maximized="1" /><path
     d="m 650.81894,314.45133 c 0.40168,0.12945 1.2162,0.38836 1.62904,0.51781 8.40184,14.22601 7.93321,29.8828 3.21345,44.5585 -3.49239,9.74972 -9.0713,19.44494 -18.9906,27.47773 -7.62078,6.16597 -18.63355,11.50753 -31.75514,11.88227 l -0.21211,-1.03561 c 12.97654,-0.44286 23.87773,-5.76399 31.23073,-11.97085 10.7115,-9.1229 16.44662,-20.10582 19.34776,-31.09556 2.73366,-10.82621 2.91219,-21.9999 -1.14926,-32.71029 -0.78115,-2.60265 -2.7784,-4.9941 -3.31387,-7.624 z"
     id="path13"
     inkscape:connector-curvature="0"
     style="fill:#090a04" /><path
     d="m 157.65458,357.55861 c 0.52442,-1.09693 0.0223,-2.77299 2.54399,-2.99101 -3.93871,13.00646 -2.62209,26.374 0.134,39.41452 3.58166,14.55304 9.77413,29.58983 25.37287,41.19957 -0.46863,0.034 -1.39473,0.0886 -1.8522,0.12264 -11.83844,-8.52335 -17.81903,-19.37682 -21.95858,-30.09402 -2.78945,-7.84203 -4.67512,-15.81349 -5.3669,-23.82585 -0.70306,-7.93741 -0.94853,-15.95658 1.12682,-23.82585 z"
     id="path15"
     inkscape:connector-curvature="0"
     style="fill:#090a04" /><path
     d="m 700.83931,356.76828 c 1.78525,0.17032 1.70715,1.40352 2.19809,2.21429 5.48965,13.93305 3.76019,28.67006 -2.41009,42.41233 -4.00565,8.33257 -9.93034,16.48801 -19.15785,23.17859 -7.71005,5.29388 -18.48861,9.74292 -30.59473,9.19105 -1.55093,-0.22484 -4.40733,0.32703 -4.38491,-1.131 7.431,0.4088 15.21915,-0.10901 21.66837,-2.56858 10.9235,-3.97212 18.30997,-10.63545 23.75498,-17.48955 11.25824,-14.97547 15.09653,-32.02216 11.10203,-48.30577 -0.4799,-2.53452 -2.15357,-4.93959 -2.17589,-7.50136 z"
     id="path17"
     inkscape:connector-curvature="0"
     style="fill:#090a04" /><path
     d="m 212.46177,363.4248 c 0.42399,0.11582 1.24967,0.34747 1.66251,0.4633 -2.30967,6.20684 -2.04188,12.6249 -1.66251,18.94076 1.31662,12.18887 4.21765,24.79334 14.05884,35.61955 1.38368,1.92132 4.75323,3.2976 5.07681,5.44376 -4.03913,-1.58748 -6.04754,-4.4286 -8.35731,-6.88816 -8.39068,-10.39018 -11.10203,-22.08849 -12.45213,-33.52108 -0.60241,-6.68377 -0.64704,-13.48337 1.67379,-20.05813 z"
     id="path19"
     inkscape:connector-curvature="0"
     style="fill:#090a04" /><path
     d="m 386.52368,111.52623 c 42.77906,-3.67232 87.49958,-2.5277 128.24792,6.78598 26.95728,6.05014 51.61605,15.94976 71.14223,28.82675 13.48979,9.03434 24.94887,19.25417 33.19449,30.40743 -6.56079,-2.02353 -12.30707,-4.89871 -18.95712,-6.82685 11.53718,12.65215 22.88467,25.52915 29.91399,39.42813 1.90809,4.40816 3.97229,9.06159 2.41008,13.62645 -2.11998,4.14244 -8.45762,6.84048 -15.18578,7.73982 -23.54299,2.55497 -47.59924,1.36265 -71.32075,0.55188 -21.22216,-0.8721 -42.42201,-2.04397 -63.65522,-2.80024 -10.99045,-0.22484 -22.97405,-0.87209 -32.96018,2.43233 -4.09492,1.62154 0.42399,4.38771 -0.59137,6.5952 -7.55384,-1.83276 -13.9919,-4.93959 -20.51922,-7.82158 -10.35445,-4.61937 -20.24028,-9.61347 -30.28231,-14.47811 -0.30126,6.17278 4.57471,12.07984 11.90539,16.21548 3.88292,2.4255 8.80352,4.02661 13.17738,6.07058 -3.67092,1.79869 -8.61383,1.86682 -13.09928,2.07121 -15.02957,0.44287 -30.30462,-3.17495 -40.43591,-10.02224 -7.2749,-4.72157 -11.72687,-10.70358 -15.35316,-16.71285 -2.10882,4.43541 -3.22461,9.25236 -2.0084,13.86491 1.36125,4.46267 6.95131,7.79433 13.01001,10.11764 -16.69209,-0.66769 -34.1987,-2.50045 -47.75546,-8.91851 -13.91379,-6.40443 -22.33794,-16.0724 -28.564,-25.78805 1.99725,8.92532 4.41849,17.83702 8.15636,26.55795 1.4282,3.10001 2.66672,6.45893 6.59427,8.80268 -10.22056,2.32331 -21.30027,2.37782 -32.0564,2.69804 -22.76194,0.31341 -45.7582,-0.27934 -68.0292,-3.37254 -9.30561,-1.42397 -19.02407,-3.15452 -26.05349,-7.37192 -3.94987,-2.74572 -3.10188,-6.69739 -1.36126,-9.89961 7.58732,-15.56822 19.50386,-30.24391 33.16103,-44.13608 -2.68904,0.69496 -5.47849,1.26045 -8.18984,1.91452 2.78946,-5.62772 7.81047,-10.73083 13.7018,-15.34338 13.51211,-10.47874 31.30882,-18.50472 49.78617,-25.43376 37.36752,-13.37437 79.15354,-21.97266 121.97723,-25.78126 m -40.17929,35.36746 c -44.89905,6.44531 -88.28063,16.32449 -130.57991,27.4641 -1.84104,0.37474 -3.31387,1.16507 -4.16186,2.22793 -13.25549,13.02689 -24.30172,26.94631 -32.12335,41.52661 -1.37241,3.31123 -4.59702,7.13345 -1.05999,10.34247 3.62629,3.17497 9.77424,4.76245 15.55399,6.03652 20.64196,4.10838 42.56706,4.8919 64.12396,5.19168 13.83569,-0.0886 27.91685,0.0409 41.44012,-1.99627 -4.3627,-5.37564 -6.12564,-11.35084 -8.17868,-17.16933 -2.25388,-7.61718 -5.08796,-15.26844 -5.18838,-23.03551 0.5021,0.0272 1.5063,0.0682 2.00841,0.0954 2.18693,2.8343 3.28039,5.94114 5.46733,8.78224 6.17027,9.04116 15.48704,17.6667 29.2781,22.98102 10.16478,3.99255 22.25985,5.71629 34.16524,6.37037 -2.81177,-2.07123 -5.64586,-4.25827 -6.71701,-6.92906 -2.13114,-5.16442 -0.26778,-10.48555 1.26084,-15.60909 0.98188,-2.95013 0.47978,-5.96158 0.75873,-8.93896 3.97229,10.46512 10.08666,21.54342 24.4914,28.39752 11.61529,5.65498 27.68254,7.71938 42.06496,5.53235 -11.52602,-4.23102 -21.72426,-11.03743 -23.0632,-19.52671 0.0558,-1.57386 -0.83684,-3.58375 1.48399,-4.72838 15.74367,7.65125 31.01872,15.82713 48.41375,22.06804 -0.44631,-1.63517 -1.09346,-3.63827 1.30547,-4.85101 4.41849,-2.43233 10.82308,-2.69805 16.44651,-3.21586 15.98926,-0.66087 31.96713,0.62682 47.91176,1.24683 30.44968,1.2332 60.9663,3.31804 91.50524,2.15298 7.25258,-0.40879 14.86209,-0.8244 21.35605,-3.01145 3.50356,-1.67605 6.66122,-4.13562 6.49374,-7.00399 0.0781,-7.19477 -4.56355,-13.9603 -8.61383,-20.58276 -6.53848,-9.72928 -14.40474,-19.11109 -23.13015,-28.16587 -1.47294,-1.33539 -2.36546,-3.01826 -4.58586,-3.9653 -37.90321,-13.388 -79.64448,-23.21949 -123.23817,-26.63972 -41.66306,-3.46112 -84.10739,-0.84484 -124.8892,4.95321 z"
     id="path37"
     inkscape:connector-curvature="0"
     style="fill:#251a11" /><path
     d="m 379.87362,72.316118 c 9.23868,-0.17714 18.47735,-1.14462 27.71602,-0.55187 24.2794,0.85846 48.52544,2.25517 72.59274,4.43541 33.3507,3.20222 66.79067,8.80269 95.6112,19.85374 33.46239,12.284242 58.21031,32.185682 72.09075,54.287782 10.42139,16.00426 18.28754,32.57403 25.4956,49.21193 12.95422,29.86917 22.95151,60.18802 31.57651,90.62951 8.32384,30.44831 15.30863,61.08057 18.39923,91.91041 1.4282,16.29724 2.25388,32.74437 -1.5063,48.95303 -1.74051,5.92069 -3.51472,12.24337 -9.79645,17.08076 -7.30837,4.68068 -17.8303,6.99718 -28.15128,7.78751 -15.91104,1.0288 -31.90019,-0.32022 -47.50997,-2.19385 -22.59458,-2.86156 -44.89905,-6.55433 -67.1812,-10.20622 -11.42561,-4.18332 -23.16363,-8.13499 -35.78323,-10.84666 -20.29595,-4.49672 -41.75243,-7.44004 -63.38743,-7.61718 -4.39629,0.83803 -7.9332,2.86837 -12.03928,4.12201 -0.30126,-6.40444 -0.0558,-12.81569 -0.13389,-19.22012 -0.76978,-3.76771 2.01967,-8.12817 -2.05304,-11.37808 30.4943,-4.70112 58.62304,-14.25327 82.77971,-26.46257 4.68639,-3.10683 10.28751,-5.70948 15.82189,-8.15543 -0.53557,-0.0886 -1.58441,-0.26572 -2.10882,-0.35429 6.82858,-4.57167 13.67948,-9.13653 19.9948,-13.98073 29.38968,-23.19222 46.67314,-51.98492 48.96038,-81.27497 1.52873,-12.32512 -0.83684,-24.67068 -3.97207,-36.8323 6.72816,-0.89934 13.0658,-3.59738 15.18578,-7.73982 1.5621,-4.56486 -0.5021,-9.21829 -2.41008,-13.62645 -7.02932,-13.89898 -18.37693,-26.77598 -29.91399,-39.42813 6.65005,1.92814 12.39633,4.80332 18.95712,6.82685 -8.24562,-11.15326 -19.7047,-21.37309 -33.19449,-30.40743 -19.52618,-12.87699 -44.18495,-22.77661 -71.14223,-28.82675 -40.74834,-9.31368 -85.46886,-10.4583 -128.24792,-6.78598 -42.82369,3.8086 -84.60971,12.40689 -121.97723,25.78126 -18.47735,6.92904 -36.27406,14.95502 -49.78617,25.43376 -5.89133,4.61255 -10.91234,9.71566 -13.7018,15.34338 2.71135,-0.65407 5.5008,-1.21956 8.18984,-1.91452 -13.65717,13.89217 -25.57371,28.56786 -33.16103,44.13608 -1.74062,3.20222 -2.58861,7.15389 1.36126,9.89961 -7.46458,22.94013 -6.60543,46.92268 3.71555,69.48809 6.47153,14.628 16.98219,28.56104 30.51662,41.24045 8.32373,7.99191 18.86787,14.9414 29.02148,22.0476 -0.53558,0.0682 -1.59557,0.21121 -2.13115,0.28615 3.90524,1.15144 6.33764,3.50882 10.2094,4.74201 3.92755,2.42551 7.76584,4.88509 12.34055,6.87455 18.86786,8.62553 39.37592,16.33811 61.95934,20.75989 6.75049,1.70331 13.85802,3.22265 21.19986,3.49518 -0.95958,1.51254 -2.00841,3.06596 -1.84104,4.72838 0.18968,4.77607 -0.1339,9.56577 0.36821,14.33503 0.31241,2.86156 0.21199,5.73673 -0.20085,8.59148 -1.56209,-0.66088 -3.19113,-1.45122 -5.21069,-1.29452 -18.27651,0.1567 -36.61996,0.96749 -54.50594,3.36574 -10.97929,1.59429 -22.69499,3.71321 -30.55009,8.9662 -4.54123,2.82068 -3.72671,7.18114 -7.82163,10.18578 -0.41284,-0.18396 -1.24968,-0.55188 -1.66252,-0.73583 0.65832,-0.60638 2.45472,-2.56859 -0.33473,-2.04397 -1.33894,0.9266 -2.42125,1.96902 -3.50355,3.01144 -34.65618,3.4475 -69.59129,6.67015 -104.7942,6.70422 -16.60281,-0.16351 -33.9867,-0.6677 -49.083224,-5.3075 -8.46878,-2.51409 -14.38242,-7.86247 -14.22621,-13.68096 -0.70295,-20.97111 1.75177,-41.92859 4.06144,-62.83838 4.12839,-34.1547 10.22056,-68.22764 18.09798,-102.13706 7.620784,-31.3204 16.245784,-62.63398 30.315794,-93.15041 6.61657,-13.74909 13.96957,-27.53225 25.85264,-39.96638 10.09782,-10.68995 23.24173,-20.28297 38.57245,-28.31576 18.3324,-9.28643 39.23088,-16.644712 61.49072,-21.809142 41.6076,-9.88599 86.37276,-13.15634 130.56886,-15.43196 M 650.81894,314.45133 c 0.53558,2.6299 2.53272,5.02135 3.31387,7.624 4.06145,10.71039 3.88292,21.88408 1.14926,32.71029 -2.90114,10.98974 -8.63626,21.97266 -19.34776,31.09556 -7.353,6.20686 -18.25419,11.52799 -31.23073,11.97085 l 0.21211,1.03561 c 13.12159,-0.37474 24.13436,-5.7163 31.75514,-11.88227 9.9193,-8.03279 15.49821,-17.72801 18.9906,-27.47773 4.71976,-14.6757 5.18839,-30.33249 -3.21345,-44.5585 -0.41295,-0.12945 -1.22747,-0.38836 -1.62904,-0.51781 m -493.16436,43.10728 c -2.07535,7.86927 -1.82988,15.88844 -1.12694,23.82585 0.69179,8.01236 2.57746,15.98382 5.36691,23.82585 4.13955,10.7172 10.12014,21.57067 21.95858,30.09402 0.45747,-0.034 1.38357,-0.0886 1.8522,-0.12264 -15.59863,-11.60974 -21.79121,-26.64653 -25.37287,-41.19957 -2.75598,-13.04052 -4.0726,-26.40806 -0.13401,-39.41452 -2.52155,0.21802 -2.01945,1.89408 -2.54387,2.99101 m 543.18473,-0.79033 c 0.0223,2.56177 1.69599,4.96684 2.17578,7.50136 3.99461,16.28361 0.15621,33.3303 -11.10203,48.30577 -5.44501,6.8541 -12.83148,13.51743 -23.75499,17.48955 -6.44921,2.45957 -14.23737,2.97738 -21.66836,2.56858 -0.0223,1.45803 2.83397,0.90616 4.38491,1.131 12.10623,0.55187 22.88468,-3.89717 30.59473,-9.19105 9.22751,-6.69058 15.15231,-14.84602 19.15785,-23.17859 6.17027,-13.74227 7.89985,-28.47928 2.41009,-42.41233 -0.49083,-0.81077 -0.41273,-2.04397 -2.19798,-2.21429 m -488.37754,6.65652 c -2.32083,6.57476 -2.2762,13.37436 -1.67367,20.05813 1.35009,11.43259 4.06144,23.1309 12.45212,33.52108 2.30966,2.45956 4.31818,5.30068 8.35731,6.88816 -0.32358,-2.14616 -3.69324,-3.52244 -5.0768,-5.44376 -9.84109,-10.82621 -12.74223,-23.43068 -14.05885,-35.61955 -0.37937,-6.31586 -0.64715,-12.73392 1.66251,-18.94076 -0.41295,-0.11583 -1.23863,-0.34748 -1.66262,-0.4633 z"
     id="path49"
     inkscape:connector-curvature="0"
     style="fill:#c4996c" /><path
     d="m 346.34439,146.89369 c 40.78181,-5.79805 83.22614,-8.41433 124.88942,-4.95321 43.59369,3.42023 85.33496,13.25172 123.23817,26.6397 2.22041,0.94704 3.11292,2.62991 4.58586,3.9653 8.7253,9.05478 16.59167,18.43659 23.13015,28.16587 4.05029,6.62246 8.69194,13.38799 8.61383,20.58276 0.16737,2.86837 -2.99018,5.32794 -6.49373,7.00399 -6.49396,2.18705 -14.10348,2.60266 -21.35606,3.01145 -30.53894,1.16506 -61.05556,-0.91978 -91.50523,-2.15298 -15.94452,-0.62001 -31.92251,-1.9077 -47.91177,-1.24683 -5.62343,0.51781 -12.02813,0.78353 -16.44651,3.21586 -2.39893,1.21274 -1.75178,3.21584 -1.30546,4.85101 -17.39504,-6.24091 -32.67008,-14.41679 -48.41376,-22.06804 -2.32082,1.14463 -1.4282,3.15452 -1.48399,4.72838 1.33894,8.48928 11.53718,15.29569 23.0632,19.52671 -14.38242,2.18703 -30.44967,0.12263 -42.06496,-5.53235 -14.40473,-6.8541 -20.51922,-17.9324 -24.4914,-28.39752 -0.27894,2.97738 0.22316,5.98883 -0.75873,8.93896 -1.52862,5.12354 -3.39198,10.44467 -1.26083,15.60909 1.07115,2.67079 3.90523,4.85783 6.717,6.92906 -11.90539,-0.65408 -24.00046,-2.37782 -34.16524,-6.37037 -13.79106,-5.31432 -23.10783,-13.93986 -29.2781,-22.98102 -2.18693,-2.8411 -3.2804,-5.94794 -5.46733,-8.78224 -0.5021,-0.0272 -1.50631,-0.0682 -2.00841,-0.0954 0.10042,7.76707 2.93451,15.41833 5.18839,23.03551 2.05303,5.81849 3.81597,11.79369 8.17867,17.16933 -13.52327,2.03715 -27.60443,1.9077 -41.44012,1.99627 -21.5569,-0.29978 -43.482,-1.0833 -64.12396,-5.19168 -5.77975,-1.27407 -11.9277,-2.86155 -15.55399,-6.03652 -3.53703,-3.20902 -0.31242,-7.03124 1.05999,-10.34247 7.82163,-14.5803 18.86787,-28.49972 32.12335,-41.52661 0.84799,-1.06286 2.32082,-1.85319 4.16186,-2.22793 42.29906,-11.13961 85.68064,-21.01879 130.57969,-27.4641 z"
     id="path51"
     inkscape:connector-curvature="0"
     style="fill:#c4996c" /><path
     d="m 288.83701,202.89159 c 6.22606,9.71565 14.65021,19.38362 28.564,25.78805 13.55676,6.41806 31.06337,8.25082 47.75546,8.91851 -6.0587,-2.32331 -11.64876,-5.65497 -13.01001,-10.11764 -1.21621,-4.61255 -0.10042,-9.4295 2.0084,-13.86491 3.62629,6.00927 8.07826,11.99128 15.35316,16.71285 10.13129,6.84729 25.40634,10.46511 40.43591,10.02224 4.48545,-0.20439 9.42836,-0.27252 13.09928,-2.07121 -4.37386,-2.04397 -9.29446,-3.64508 -13.17738,-6.07058 -7.33068,-4.13564 -12.20665,-10.0427 -11.90539,-16.21548 10.04203,4.86464 19.92786,9.85874 30.28231,14.47811 6.52732,2.88199 12.96538,5.98882 20.51922,7.82158 1.01536,-2.20749 -3.50355,-4.97366 0.59137,-6.5952 9.98624,-3.30442 21.96984,-2.65717 32.96018,-2.43233 21.23321,0.75627 42.43306,1.92814 63.65522,2.80024 23.72151,0.81077 47.77787,2.00309 71.32075,-0.55188 3.13523,12.16162 5.50091,24.50718 3.97207,36.8323 -2.28724,29.29005 -19.5707,58.08275 -48.96038,81.27497 -6.31532,4.8442 -13.16622,9.40906 -19.9948,13.98073 -11.87192,6.55433 -23.90004,13.10865 -37.57963,18.27988 -31.2864,12.25018 -67.66099,19.64935 -104.78304,21.05287 -16.44662,0.0749 -33.04944,0.33385 -49.21712,-1.76462 -9.62919,-0.59957 -18.74513,-2.62991 -28.0619,-4.0675 -24.56952,-4.80332 -47.84472,-12.09348 -68.34162,-21.67968 -8.32373,-3.82222 -15.63199,-8.38709 -23.6211,-12.44095 -10.15361,-7.1062 -20.69774,-14.05569 -29.02147,-22.0476 -13.53443,-12.67941 -24.04509,-26.61245 -30.51662,-41.24045 -10.32098,-22.56541 -11.18013,-46.54796 -3.71556,-69.48809 7.02943,4.2174 16.74788,5.94795 26.0535,7.37192 22.271,3.0932 45.26714,3.68595 68.02919,3.37254 10.75614,-0.32022 21.83585,-0.37473 32.0564,-2.69804 -3.92755,-2.34375 -5.16606,-5.70267 -6.59426,-8.80268 -3.73765,-8.72093 -6.15889,-17.63263 -8.15614,-26.55795 m 184.95194,54.74426 c -3.53703,1.19231 -7.17459,2.3165 -10.47719,3.72683 -2.42124,1.73737 -4.85365,3.49519 -6.86206,5.42333 -1.11578,2.07803 -2.11998,4.18332 -2.91218,6.31586 0.75884,2.25518 1.7964,4.51717 3.24692,6.64289 2.17577,1.86683 4.31807,3.78815 6.90657,5.4574 3.24693,1.1855 6.62786,2.2688 10.01972,3.31803 3.90524,0.68133 7.94437,1.18551 11.99465,1.50573 4.50776,-0.32704 9.00447,-0.83121 13.45644,-1.37627 3.70428,-1.02199 7.27489,-2.25518 10.7896,-3.51562 2.27609,-1.56023 4.2287,-3.28398 6.2929,-4.96004 2.08651,-1.81231 1.12694,-4.42178 3.23577,-6.17959 7.24142,-2.00309 14.72842,-3.68595 21.96984,-5.70267 2.18694,-0.31341 1.19378,-2.36418 -0.85915,-1.94858 -7.41994,1.62836 -14.48284,3.88354 -21.94742,5.38245 -0.53557,-1.87364 -1.10462,-3.73365 -1.89683,-5.56641 5.73512,-2.71167 11.77139,-5.18486 17.59588,-7.84202 1.04872,-0.42923 2.42113,-1.23319 1.07115,-1.97583 -1.14926,-0.75627 -2.55514,0.17714 -3.55923,0.5178 -5.79102,2.56859 -11.62645,5.10311 -17.41746,7.67851 -3.42534,-3.52926 -9.56214,-5.24619 -15.29737,-7.03125 -4.42965,-0.5655 -8.89278,-1.04924 -13.3559,-1.40352 -4.03913,0.35428 -8.08942,0.83121 -11.99465,1.53297 m -214.3751,-0.89253 c -1.68483,0.32022 -1.47283,1.5466 -0.13389,2.01671 6.33764,2.84111 12.69759,5.66179 19.15796,8.4007 -3.38081,2.30969 -3.97218,5.41652 -5.47848,8.25082 -5.70165,-1.41715 -11.31403,-2.97056 -17.0603,-4.31277 -2.03072,-0.48374 -3.16882,1.58748 -1.08231,1.91452 6.1368,1.73737 12.55254,3.10001 18.65587,4.8987 1.05999,2.03716 1.35009,4.32641 3.6486,6.04334 1.99725,1.50572 3.58166,3.24309 5.88017,4.60574 3.24692,1.17187 6.58311,2.27561 9.96393,3.31803 3.91628,0.7154 7.97784,1.17869 12.02812,1.55342 4.47429,-0.36791 8.94857,-0.83121 13.37822,-1.41715 3.71555,-1.00836 7.24142,-2.28243 10.7673,-3.52244 2.55514,-1.88045 5.04333,-3.84266 7.11869,-5.93431 1.33894,-3.35893 3.02377,-6.84048 0.93725,-10.23347 -0.31241,-3.33848 -4.67512,-5.60728 -7.74352,-8.12136 -3.48124,-1.4921 -7.26363,-2.75936 -11.0574,-3.93123 -4.44081,-0.57231 -8.9151,-1.0833 -13.40054,-1.45122 -5.26649,0.62681 -10.95697,0.84484 -15.47589,2.76617 -3.20229,1.13781 -6.62774,2.10528 -9.00435,3.89035 -5.96943,-2.40507 -11.64876,-5.08948 -17.47314,-7.62399 -1.14925,-0.44287 -2.19809,-1.11737 -3.62629,-1.11056 M 372.9781,333.1877 c -6.78396,0.44968 -13.79106,0.72902 -20.06175,2.49365 -0.067,10.24708 11.65991,19.28142 26.37707,23.53969 13.07696,3.96529 29.0661,5.19167 42.7679,1.66924 12.39633,-3.10002 23.31983,-8.29169 31.65483,-14.6825 2.97903,-2.50727 6.23722,-5.26662 6.33753,-8.4961 -0.067,-1.63517 -2.59977,-2.60946 -4.95396,-2.91606 -8.55804,-1.39671 -17.47314,-1.68968 -26.26549,-2.05078 -18.61135,-0.5178 -37.28953,-0.53824 -55.85613,0.44286 z"
     id="path77"
     inkscape:connector-curvature="0"
     style="fill:#feddae" /><path
     d="m 427.70718,415.90707 c 10.27634,-1.45114 21.06595,-2.46639 30.15957,-5.95476 0.0781,6.40443 -0.16737,12.81568 0.13389,19.22012 -12.53022,4.55123 -25.61834,8.74818 -39.78876,11.01698 -12.2736,1.93496 -25.41751,1.79869 -37.49026,-0.59956 -13.86916,-2.77299 -26.57792,-7.39917 -38.1151,-12.79524 0.41284,-2.85475 0.51326,-5.72992 0.20085,-8.59148 8.03362,2.32331 17.18303,1.98946 25.85265,2.00302 19.89438,0.10908 39.64372,-1.72368 59.04716,-4.29908 z"
     id="path87"
     inkscape:connector-curvature="0"
     style="fill:#feddae" /><path
     d="m 473.78895,257.63585 c 3.90523,-0.70176 7.95552,-1.17869 11.99465,-1.53297 4.46312,0.35428 8.92625,0.83802 13.3559,1.40352 5.73512,1.78506 11.87192,3.50199 15.29737,7.03125 5.79101,-2.5754 11.62644,-5.10992 17.41746,-7.67851 1.00409,-0.34066 2.40997,-1.27407 3.55923,-0.5178 1.35009,0.74264 -0.0223,1.5466 -1.07115,1.97583 -5.82449,2.65716 -11.86076,5.13035 -17.59588,7.84202 0.79221,1.83276 1.36126,3.69277 1.89683,5.56641 7.46469,-1.49891 14.52748,-3.75409 21.94742,-5.38245 2.05304,-0.4156 3.04609,1.63517 0.85915,1.94858 -7.24142,2.01672 -14.72842,3.69958 -21.96984,5.70267 -2.10883,1.75781 -1.14926,4.36728 -3.23577,6.17959 -2.0642,1.67606 -4.01681,3.39981 -6.2929,4.96004 -3.51471,1.26044 -7.08532,2.49363 -10.7896,3.51562 -4.45197,0.54506 -8.94857,1.04923 -13.45644,1.37627 -4.05028,-0.32022 -8.08941,-0.8244 -11.99465,-1.50573 -3.39186,-1.04923 -6.77268,-2.13253 -10.01972,-3.31803 -2.5885,-1.66925 -4.73091,-3.59057 -6.90657,-5.4574 -1.45052,-2.12572 -2.48819,-4.38771 -3.24692,-6.64289 0.7922,-2.13254 1.7964,-4.23783 2.91218,-6.31586 2.00841,-1.92814 4.44082,-3.68596 6.86206,-5.42333 3.30271,-1.41033 6.94016,-2.53452 10.47719,-3.72683 z"
     id="path107"
     inkscape:connector-curvature="0"
     style="fill:#0c0a00" /><path
     d="m 259.41385,256.74332 c 1.4282,-0.007 2.47704,0.66769 3.62629,1.11056 5.82438,2.53451 11.50371,5.21892 17.47314,7.62399 2.37661,-1.78507 5.80206,-2.75254 9.00435,-3.89035 4.51892,-1.92133 10.2094,-2.13936 15.47589,-2.76617 4.48544,0.36792 8.95973,0.87891 13.40054,1.45122 3.79365,1.17187 7.57616,2.43913 11.0574,3.93123 3.0684,2.51408 7.43111,4.78288 7.74352,8.12136 2.08652,3.39299 0.40169,6.87454 -0.93725,10.23347 -2.07536,2.09165 -4.56355,4.05386 -7.11869,5.93431 -3.52588,1.24001 -7.05175,2.51408 -10.7673,3.52244 -4.42965,0.58594 -8.90393,1.04924 -13.37822,1.41715 -4.05028,-0.37473 -8.11173,-0.83802 -12.02812,-1.55342 -3.38082,-1.04242 -6.71701,-2.14616 -9.96393,-3.31803 -2.29862,-1.36265 -3.88292,-3.10002 -5.88017,-4.60574 -2.29851,-1.71693 -2.58861,-4.00618 -3.6486,-6.04334 -6.10333,-1.79869 -12.51907,-3.16133 -18.65587,-4.8987 -2.08651,-0.32704 -0.94841,-2.39826 1.08231,-1.91452 5.74627,1.34221 11.35865,2.89562 17.0603,4.31277 1.5063,-2.8343 2.09756,-5.94113 5.47848,-8.25082 -6.46037,-2.73891 -12.82032,-5.55959 -19.15796,-8.4007 -1.33894,-0.47011 -1.55094,-1.69649 0.13389,-2.01671 z"
     id="path109"
     inkscape:connector-curvature="0"
     style="fill:#0c0a00" /><path
     d="m 372.9781,333.1877 c 18.5666,-0.9811 37.24478,-0.96066 55.85601,-0.44286 8.79236,0.3611 17.70746,0.65407 26.2655,2.05078 2.3543,0.3066 4.88712,1.28089 4.95396,2.91606 -0.10042,3.22948 -3.3585,5.98883 -6.33753,8.4961 -8.33489,6.39081 -19.25839,11.58248 -31.65483,14.6825 -13.7018,3.52243 -29.69094,2.29605 -42.7679,-1.66924 -14.71716,-4.25827 -26.44402,-13.29261 -26.37708,-23.53969 6.27081,-1.76463 13.27791,-2.04397 20.06187,-2.49365 z"
     id="path117"
     inkscape:connector-curvature="0"
     style="fill:#404040" /><path
     d="m 238.57105,363.26809 c 0.53558,-0.0749 1.59557,-0.21802 2.13115,-0.28615 7.98899,4.05386 15.29736,8.61873 23.62109,12.44095 20.4969,9.5862 43.7721,16.87636 68.34162,21.67968 9.31678,1.43759 18.43271,3.46793 28.06191,4.0675 16.16767,2.09847 32.7705,1.83957 49.21711,1.76462 37.12205,-1.40352 73.49664,-8.80269 104.78304,-21.05287 13.67948,-5.17123 25.7076,-11.72555 37.57963,-18.27988 0.52442,0.0886 1.57325,0.26571 2.10883,0.35429 -5.53439,2.44595 -11.1355,5.0486 -15.8219,8.15543 -24.15666,12.2093 -52.28551,21.76145 -82.77971,26.46257 4.0726,3.24991 1.28315,7.61037 2.05304,11.37808 -9.09362,3.48837 -19.88323,4.50355 -30.15957,5.95476 -19.40344,2.5754 -39.15277,4.40816 -59.04716,4.29915 -8.66962,-0.0137 -17.81903,0.32022 -25.85265,-2.00302 -0.5021,-4.76926 -0.17853,-9.55895 -0.36821,-14.33502 -0.16737,-1.66243 0.88147,-3.21585 1.84104,-4.72839 -7.34184,-0.27253 -14.44937,-1.79187 -21.19986,-3.49518 -22.58342,-4.42179 -43.09148,-12.13435 -61.95934,-20.7599 -4.57471,-1.98946 -8.41299,-4.44904 -12.34054,-6.87454 -3.87188,-1.23326 -6.30428,-3.59064 -10.20952,-4.74208 z"
     id="path121"
     inkscape:connector-curvature="0"
     style="fill:#fad490" /></svg>