<?xml version="1.0" encoding="UTF-8" standalone="no"?>
<!-- Created with Sodipodi ("http://www.sodipodi.com/") -->

<svg
   xmlns:dc="http://purl.org/dc/elements/1.1/"
   xmlns:cc="http://creativecommons.org/ns#"
   xmlns:rdf="http://www.w3.org/1999/02/22-rdf-syntax-ns#"
   xmlns:svg="http://www.w3.org/2000/svg"
   xmlns="http://www.w3.org/2000/svg"
   xmlns:xlink="http://www.w3.org/1999/xlink"
   xmlns:sodipodi="http://sodipodi.sourceforge.net/DTD/sodipodi-0.dtd"
   xmlns:inkscape="http://www.inkscape.org/namespaces/inkscape"
   id="svg690"
   sodipodi:version="0.32"
   width="800"
   height="520"
   xml:space="preserve"
   sodipodi:docname="lady2.svg"
   inkscape:version="0.91 r"
   inkscape:output_extension="org.inkscape.output.svg.inkscape"
   version="1.0"><metadata
     id="metadata23"><rdf:RDF><cc:Work
         rdf:about=""><dc:format>image/svg+xml</dc:format><dc:type
           rdf:resource="http://purl.org/dc/dcmitype/StillImage" /><dc:title /></cc:Work></rdf:RDF></metadata><defs
     id="defs692"><inkscape:perspective
       sodipodi:type="inkscape:persp3d"
       inkscape:vp_x="0 : 526.18109 : 1"
       inkscape:vp_y="0 : 1000 : 0"
       inkscape:vp_z="744.09448 : 526.18109 : 1"
       inkscape:persp3d-origin="372.04724 : 350.78739 : 1"
       id="perspective25" /><linearGradient
       id="linearGradient705"><stop
         style="stop-color:#ffffff;stop-opacity:1;"
         offset="0"
         id="stop706" /><stop
         style="stop-color:#4c4c7a;stop-opacity:1;"
         offset="1"
         id="stop707" /></linearGradient><linearGradient
       id="linearGradient694"><stop
         style="stop-color:#c7f0ff;stop-opacity:1;"
         offset="0"
         id="stop695" /><stop
         style="stop-color:#ffffff;stop-opacity:1;"
         offset="1"
         id="stop696" /></linearGradient><linearGradient
       xlink:href="#linearGradient694"
       id="linearGradient697"
       x1="74.833076"
       y1="224.92026"
       x2="579.74213"
       y2="987.05554"
       gradientTransform="matrix(1.2403472,0,0,0.8062259,99.100189,-166.10214)"
       gradientUnits="userSpaceOnUse" /><linearGradient
       xlink:href="#linearGradient694"
       id="linearGradient700"
       x1="0.495"
       y1="0.9609375"
       x2="0.49000001"
       y2="-0.1796875" /><linearGradient
       xlink:href="#linearGradient694"
       id="linearGradient703"
       y2="572.83191"
       x2="201.4899"
       y1="52.162842"
       x1="645.30786"
       gradientTransform="scale(1.1616636,0.8608344)"
       gradientUnits="userSpaceOnUse" /><linearGradient
       xlink:href="#linearGradient694"
       id="linearGradient708"
       x1="183.00497"
       y1="837.26624"
       x2="177.1879"
       y2="346.11108"
       gradientTransform="matrix(2.2504214,0,0,0.4443612,99.100189,-166.10214)"
       gradientUnits="userSpaceOnUse" /><radialGradient
       xlink:href="#linearGradient705"
       id="radialGradient709"
       cx="459.01657"
       cy="291.24692"
       r="358.83459"
       fx="459.01657"
       fy="291.24692"
       gradientTransform="scale(1.1544482,0.8662147)"
       gradientUnits="userSpaceOnUse" /><linearGradient
       inkscape:collect="always"
       xlink:href="#linearGradient694"
       id="linearGradient2409"
       gradientUnits="userSpaceOnUse"
       gradientTransform="scale(1.1616636,0.8608344)"
       x1="645.30786"
       y1="52.162842"
       x2="201.4899"
       y2="572.83191" /><radialGradient
       inkscape:collect="always"
       xlink:href="#linearGradient705"
       id="radialGradient2411"
       gradientUnits="userSpaceOnUse"
       gradientTransform="scale(1.1544482,0.8662147)"
       cx="459.01657"
       cy="291.24692"
       fx="459.01657"
       fy="291.24692"
       r="358.83459" /><linearGradient
       inkscape:collect="always"
       xlink:href="#linearGradient694"
       id="linearGradient2413"
       gradientUnits="userSpaceOnUse"
       gradientTransform="matrix(2.2504214,0,0,0.4443612,99.100189,-166.10214)"
       x1="183.00497"
       y1="837.26624"
       x2="177.1879"
       y2="346.11108" /></defs><sodipodi:namedview
     id="base"
     showgrid="false"
     inkscape:zoom="0.33193016"
     inkscape:cx="341.58474"
     inkscape:cy="251.17823"
     inkscape:window-width="1355"
     inkscape:window-height="712"
     inkscape:window-x="0"
     inkscape:window-y="0"
     inkscape:current-layer="svg690"
     inkscape:window-maximized="1" /><path
     id="path5272-59"
     d="m 742.61857,501.81216 c 0,0 -0.97837,2.91406 -0.17104,4.12704 1.08501,1.62972 3.61037,3.27675 5.86034,2.91211 3.01844,-0.48924 5.11911,-3.58007 5.37712,-6.0529 0.22967,-2.19856 -1.43216,-4.60063 -3.59849,-5.94988 -2.74014,-1.70642 -10.18448,-1.65112 -10.18448,-1.65112"
     sodipodi:nodetypes="cssssc"
     style="fill:none;stroke:#5a4500;stroke-width:2.15121913"
     inkscape:connector-curvature="0" /><ellipse
     id="ellipse3044"
     style="fill:#ffcc99;fill-rule:evenodd;stroke:#1f1a17;stroke-width:3.81079316"
     ry="157.07648"
     cy="301.64713"
     rx="176.03055"
     class="fil1 str0"
     cx="390.28616" /><ellipse
     id="ellipse3046"
     style="fill:#000000;fill-rule:evenodd;stroke:#1f1a17;stroke-width:3.81079316"
     ry="30.853712"
     cy="259.57745"
     rx="18.669176"
     class="fil2 str0"
     cx="441.00955" /><ellipse
     id="ellipse3048"
     style="fill:#000000;fill-rule:evenodd;stroke:#1f1a17;stroke-width:3.81079316"
     ry="30.853712"
     cy="263.27051"
     rx="18.669176"
     class="fil2 str0"
     cx="341.42078" /><path
     id="path3050"
     d="m 272.97907,304.17747 c 82.12348,129.55392 157.68036,131.28191 226.66775,5.18199"
     style="fill:none;stroke:#1f1a17;stroke-width:3.81077981"
     inkscape:connector-curvature="0"
     class="fil3 str0" /><g
     id="_150751304"
     style="fill-rule:evenodd"
     transform="matrix(18.579992,0,0,19.540033,-2728.3653,-859.79281)"><g
       id="g3069"><g
         id="g3071"><g
           id="g3073"><g
             id="g3075"><path
               id="_150751544"
               d="m 165.74,53.559 c -0.3591,0.1096 -0.712,0.2391 -1.0573,0.3866 -0.7452,0.3195 -1.4563,0.7207 -2.11,1.2008 -0.5083,0.3852 -0.9856,0.8235 -1.3675,1.3366 -1.1813,1.518 -1.0082,3.6819 -2.1014,5.2298 -0.0887,0.1266 -0.2389,0.3316 -0.4195,0.3054 -0.1694,-0.0279 -0.1905,-0.2506 -0.1974,-0.3864 -0.0802,-1.7424 0.6069,-4.2184 1.676,-5.5781 0.479,-0.6473 1.0873,-1.1728 1.7456,-1.6328 0.7538,-0.5044 1.5596,-0.9163 2.3686,-1.3231 0.0502,-0.0252 0.1013,-0.049 0.1514,-0.0743 0.7771,-0.3937 1.5381,-0.8137 2.2487,-1.3194 0.3762,-0.2482 1.8552,-1.6075 1.873,-0.4892 0.0159,1.4499 -0.3108,1.8125 -1.7226,2.0767 -0.3665,0.0724 -0.73,0.1587 -1.0876,0.2674 z"
               class="fil5"
               style="fill:#cc6633;fill-opacity:0.72157"
               inkscape:connector-curvature="0" /><path
               id="_1507515441"
               d="m 165.74,53.559 c -0.3591,0.1096 -0.712,0.2391 -1.0573,0.3866 -0.7452,0.3195 -1.4563,0.7207 -2.11,1.2008 -0.5083,0.3852 -0.9856,0.8235 -1.3675,1.3366 -1.1813,1.518 -1.0082,3.6819 -2.1014,5.2298 -0.0887,0.1266 -0.2389,0.3316 -0.4195,0.3054 -0.1694,-0.0279 -0.1905,-0.2506 -0.1974,-0.3864 -0.0802,-1.7424 0.6069,-4.2184 1.676,-5.5781 0.479,-0.6473 1.0873,-1.1728 1.7456,-1.6328 0.7538,-0.5044 1.5596,-0.9163 2.3686,-1.3231 0.0502,-0.0252 0.1013,-0.049 0.1514,-0.0743 0.7771,-0.3937 1.5381,-0.8137 2.2487,-1.3194 0.3762,-0.2482 1.8552,-1.6075 1.873,-0.4892 0.0159,1.4499 -0.3108,1.8125 -1.7226,2.0767 -0.3665,0.0724 -0.73,0.1587 -1.0876,0.2674 z"
               class="fil3 str2"
               style="fill:none;stroke:#000000;stroke-width:0.17640001"
               inkscape:connector-curvature="0" /></g></g><g
           id="g3079"><g
             id="g3081"><path
               id="_150752024"
               d="m 165.23,54.117 c -0.1307,0.0538 -0.2605,0.1099 -0.3889,0.169 -0.6981,0.3221 -1.3634,0.7181 -1.9701,1.191 -0.4442,0.3549 -0.8594,0.7546 -1.1894,1.2197 -1.037,1.4036 -1.0582,3.5276 -1.4976,5.1585 -0.2979,1.1114 -0.7201,2.2204 -1.4768,3.1052 -0.3826,0.4494 -0.8462,0.8277 -1.3801,1.0828 -0.3583,0.1555 -1.6937,0.5901 -1.9123,-0.0246 -0.1271,-0.4075 0.5736,-1.0685 0.7492,-1.4002 0.1672,-0.289 0.2859,-0.6011 0.3669,-0.9246 0.1761,-0.7482 0.191,-1.5286 0.188,-2.2936 -0.0225,-2.2574 -0.2459,-4.5985 0.6799,-6.7264 0.4395,-1.1181 1.1951,-2.1008 2.0503,-2.9345 0.9141,-0.8936 1.976,-1.634 3.1243,-2.1947 0.2151,-0.1045 0.4334,-0.2028 0.6546,-0.2939 0.9993,-0.4094 2.0614,-0.6828 3.1432,-0.7293 2.5589,-0.0896 3.9932,0.6099 2.952,2.7839 -0.6455,1.3989 -0.8809,1.912 -2.4713,2.2895 -0.5518,0.14 -1.0946,0.3062 -1.6219,0.5222 z"
               class="fil5"
               style="fill:#cc6633;fill-opacity:0.72157"
               inkscape:connector-curvature="0" /><path
               id="_1507520241"
               d="m 165.23,54.117 c -0.1307,0.0538 -0.2605,0.1099 -0.3889,0.169 -0.6981,0.3221 -1.3634,0.7181 -1.9701,1.191 -0.4442,0.3549 -0.8594,0.7546 -1.1894,1.2197 -1.037,1.4036 -1.0582,3.5276 -1.4976,5.1585 -0.2979,1.1114 -0.7201,2.2204 -1.4768,3.1052 -0.3826,0.4494 -0.8462,0.8277 -1.3801,1.0828 -0.3583,0.1555 -1.6937,0.5901 -1.9123,-0.0246 -0.1271,-0.4075 0.5736,-1.0685 0.7492,-1.4002 0.1672,-0.289 0.2859,-0.6011 0.3669,-0.9246 0.1761,-0.7482 0.191,-1.5286 0.188,-2.2936 -0.0225,-2.2574 -0.2459,-4.5985 0.6799,-6.7264 0.4395,-1.1181 1.1951,-2.1008 2.0503,-2.9345 0.9141,-0.8936 1.976,-1.634 3.1243,-2.1947 0.2151,-0.1045 0.4334,-0.2028 0.6546,-0.2939 0.9993,-0.4094 2.0614,-0.6828 3.1432,-0.7293 2.5589,-0.0896 3.9932,0.6099 2.952,2.7839 -0.6455,1.3989 -0.8809,1.912 -2.4713,2.2895 -0.5518,0.14 -1.0946,0.3062 -1.6219,0.5222 z"
               class="fil3 str2"
               style="fill:none;stroke:#000000;stroke-width:0.17640001"
               inkscape:connector-curvature="0" /></g></g><g
           id="g3085"><g
             id="g3087"><path
               id="_150751376"
               d="m 163.92,53.274 c -0.6793,0.3615 -1.3464,0.7476 -1.9776,1.1886 -0.627,0.4549 -1.229,0.9721 -1.6907,1.5988 -1.092,1.3889 -1.37,3.3326 -1.7202,5.0133 -0.038,0.1826 -0.0686,0.3668 -0.0939,0.5516 -0.0286,0.2137 -0.1354,2.7432 -0.5426,2.5509 -0.4983,-0.2681 -0.1044,-2.2101 -0.0934,-2.6345 0.0441,-2.1026 -0.1479,-4.3422 0.6783,-6.3281 0.3722,-0.9936 1.0124,-1.8716 1.7302,-2.6442 0.8025,-0.8774 1.7258,-1.6373 2.709,-2.3034 0.3874,-0.2604 0.785,-0.5059 1.1903,-0.7375 0.7023,-0.3992 1.478,-0.684 2.2858,-0.7594 1.5095,-0.1241 3.7459,0.8258 2.6798,2.6327 -0.0887,0.1497 -0.5756,0.9928 -0.5787,0.9651 -0.0931,-0.9864 0.3249,-2.0728 -1.0934,-1.1704 -0.2627,0.1711 -0.4697,0.4193 -0.7202,0.6077 -0.7041,0.57 -1.6124,0.8822 -2.4125,1.2867 -0.1172,0.0596 -0.234,0.1204 -0.3502,0.1821 z"
               class="fil6"
               style="fill:#cc6633;fill-opacity:0.49020003;fill-rule:nonzero"
               inkscape:connector-curvature="0" /><path
               id="_1507513761"
               d="m 163.92,53.274 c -0.6793,0.3615 -1.3464,0.7476 -1.9776,1.1886 -0.627,0.4549 -1.229,0.9721 -1.6907,1.5988 -1.092,1.3889 -1.37,3.3326 -1.7202,5.0133 -0.038,0.1826 -0.0686,0.3668 -0.0939,0.5516 -0.0286,0.2137 -0.1354,2.7432 -0.5426,2.5509 -0.4983,-0.2681 -0.1044,-2.2101 -0.0934,-2.6345 0.0441,-2.1026 -0.1479,-4.3422 0.6783,-6.3281 0.3722,-0.9936 1.0124,-1.8716 1.7302,-2.6442 0.8025,-0.8774 1.7258,-1.6373 2.709,-2.3034 0.3874,-0.2604 0.785,-0.5059 1.1903,-0.7375 0.7023,-0.3992 1.478,-0.684 2.2858,-0.7594 1.5095,-0.1241 3.7459,0.8258 2.6798,2.6327 -0.0887,0.1497 -0.5756,0.9928 -0.5787,0.9651 -0.0931,-0.9864 0.3249,-2.0728 -1.0934,-1.1704 -0.2627,0.1711 -0.4697,0.4193 -0.7202,0.6077 -0.7041,0.57 -1.6124,0.8822 -2.4125,1.2867 -0.1172,0.0596 -0.234,0.1204 -0.3502,0.1821 z"
               class="fil7 str2"
               style="fill:none;stroke:#000000;stroke-width:0.17640001"
               inkscape:connector-curvature="0" /></g></g></g></g></g><path
     id="path3091"
     d="m 417.89935,146.68871 c -60.60895,-31.86925 -157.5797,25.49595 -181.82386,82.86172 -30.30448,63.74128 6.06089,175.28364 -75.76118,203.96708"
     style="fill:none"
     inkscape:connector-curvature="0"
     class="fil3" /><g
     id="g3151"
     style="fill-rule:evenodd"
     transform="matrix(18.579992,0,0,19.540033,-2728.3653,-859.79281)"><g
       id="g3153"><g
         id="g3155"><g
           id="_150751088"><g
             id="g3158"><path
               id="_150751112"
               d="m 172.92,49.557 c 0.4096,0.1968 0.8002,0.4321 1.1683,0.6984 1.5246,1.1113 2.6723,2.7548 3.0408,4.6185 0.3383,1.4377 0.2119,3.2603 -0.0241,4.7165 -0.0352,0.2133 -0.0822,0.5575 -0.3083,0.6609 -0.2381,0.1029 -0.3904,-0.2209 -0.4582,-0.3916 -0.5678,-1.4717 -0.0906,-3.1717 -0.286,-4.6983 -0.1872,-1.6308 -1.1002,-3.2278 -2.494,-4.1244 -0.0238,-0.0151 -0.0471,-0.0312 -0.0712,-0.0458 -0.7315,-0.4395 -1.6123,-0.6518 -2.4527,-0.4413 -0.5777,0.1529 -1.5036,1.3151 -1.6897,0.4312 -0.3668,-1.7248 0.0173,-2.3655 2.1052,-1.9347 0.5085,0.1098 1.0008,0.2865 1.4699,0.5106 z"
               class="fil5"
               style="fill:#cc6633;fill-opacity:0.72157"
               inkscape:connector-curvature="0" /><path
               id="_1507511121"
               d="m 172.92,49.557 c 0.4096,0.1968 0.8002,0.4321 1.1683,0.6984 1.5246,1.1113 2.6723,2.7548 3.0408,4.6185 0.3383,1.4377 0.2119,3.2603 -0.0241,4.7165 -0.0352,0.2133 -0.0822,0.5575 -0.3083,0.6609 -0.2381,0.1029 -0.3904,-0.2209 -0.4582,-0.3916 -0.5678,-1.4717 -0.0906,-3.1717 -0.286,-4.6983 -0.1872,-1.6308 -1.1002,-3.2278 -2.494,-4.1244 -0.0238,-0.0151 -0.0471,-0.0312 -0.0712,-0.0458 -0.7315,-0.4395 -1.6123,-0.6518 -2.4527,-0.4413 -0.5777,0.1529 -1.5036,1.3151 -1.6897,0.4312 -0.3668,-1.7248 0.0173,-2.3655 2.1052,-1.9347 0.5085,0.1098 1.0008,0.2865 1.4699,0.5106 z"
               class="fil3 str2"
               style="fill:none;stroke:#000000;stroke-width:0.17640001"
               inkscape:connector-curvature="0" /></g></g><g
           id="g3162"><g
             id="g3164"><path
               id="path3166"
               d="m 173.89,49.68 c 0.1383,0.084 0.2738,0.1728 0.407,0.2647 1.6304,1.1339 2.8631,2.8332 3.324,4.7748 0.4136,1.4521 0.251,3.0536 0.4129,4.5436 0.0572,0.5126 0.1294,1.0497 0.3321,1.5285 0.1032,0.2372 0.2525,0.4457 0.4462,0.6174 0.2854,0.2928 1.0859,0.5986 1.1464,1.0401 0.0672,0.6558 -1.2305,0.8407 -1.6397,0.8484 -0.5694,-0.0188 -1.122,-0.1873 -1.6154,-0.4698 -0.9308,-0.5385 -1.5842,-1.4264 -2.0544,-2.3753 -0.6012,-1.2244 -0.694,-3.1034 -1.5385,-4.1604 -0.4162,-0.8306 -0.9818,-1.4804 -1.7635,-1.9962 -0.0612,-0.0402 -0.1235,-0.0788 -0.1861,-0.1168 -0.318,-0.1924 -0.6523,-0.3541 -0.9919,-0.5045 -1.3247,-0.5869 -1.272,-1.1629 -1.3929,-2.4867 -0.2072,-2.0218 0.2804,-2.8812 2.7535,-2.4364 0.8361,0.16 1.6331,0.4894 2.3603,0.9286 z"
               style="fill:#cc6633;fill-opacity:0.72157"
               inkscape:connector-curvature="0"
               class="fil5" /><path
               id="1"
               d="m 173.89,49.68 c 0.1383,0.084 0.2738,0.1728 0.407,0.2647 1.6304,1.1339 2.8631,2.8332 3.324,4.7748 0.4136,1.4521 0.251,3.0536 0.4129,4.5436 0.0572,0.5126 0.1294,1.0497 0.3321,1.5285 0.1032,0.2372 0.2525,0.4457 0.4462,0.6174 0.2854,0.2928 1.0859,0.5986 1.1464,1.0401 0.0672,0.6558 -1.2305,0.8407 -1.6397,0.8484 -0.5694,-0.0188 -1.122,-0.1873 -1.6154,-0.4698 -0.9308,-0.5385 -1.5842,-1.4264 -2.0544,-2.3753 -0.6012,-1.2244 -0.694,-3.1034 -1.5385,-4.1604 -0.4162,-0.8306 -0.9818,-1.4804 -1.7635,-1.9962 -0.0612,-0.0402 -0.1235,-0.0788 -0.1861,-0.1168 -0.318,-0.1924 -0.6523,-0.3541 -0.9919,-0.5045 -1.3247,-0.5869 -1.272,-1.1629 -1.3929,-2.4867 -0.2072,-2.0218 0.2804,-2.8812 2.7535,-2.4364 0.8361,0.16 1.6331,0.4894 2.3603,0.9286 z"
               class="fil3 str2"
               style="fill:none;stroke:#000000;stroke-width:0.17640001"
               inkscape:connector-curvature="0" /></g></g><g
           id="g3169"><g
             id="g3171"><path
               id="path3173"
               d="m 173.96,51.328 c 1.2006,0.9316 1.9994,2.3444 2.1877,3.8514 0.2126,1.4929 -0.1314,3.013 0.1485,4.5084 0.011,0.0576 0.0246,0.1149 0.0395,0.1716 0.089,0.3254 1.3497,1.7507 1.299,1.8151 -0.6186,0.7232 -1.7843,-1.2506 -1.9469,-1.5874 -0.6317,-1.3297 -0.6834,-2.98 -1.4501,-4.229 -0.4837,-1.0335 -1.3406,-1.876 -2.45,-2.2121 -0.1948,-0.0561 -0.395,-0.0941 -0.5974,-0.1072 -0.3178,-0.02 -0.6424,-0.0336 -0.9525,-0.1116 -0.9882,-0.2595 -1.3703,-1.5276 -1.3347,-2.4407 0.006,-0.1493 0.0741,-1.2035 0.1327,-1.1177 0.5576,0.8753 -0.0297,1.8231 1.2091,1.0427 0.2709,-0.171 0.5012,-0.3725 0.8164,-0.4641 0.8482,-0.2387 1.7846,0.1486 2.4916,0.5949 0.1398,0.0892 0.2756,0.1847 0.4071,0.2857 z"
               style="fill:#cc6633;fill-opacity:0.49020003;fill-rule:nonzero"
               inkscape:connector-curvature="0"
               class="fil6" /><path
               id="path3175"
               d="m 173.96,51.328 c 1.2006,0.9316 1.9994,2.3444 2.1877,3.8514 0.2126,1.4929 -0.1314,3.013 0.1485,4.5084 0.011,0.0576 0.0246,0.1149 0.0395,0.1716 0.089,0.3254 1.3497,1.7507 1.299,1.8151 -0.6186,0.7232 -1.7843,-1.2506 -1.9469,-1.5874 -0.6317,-1.3297 -0.6834,-2.98 -1.4501,-4.229 -0.4837,-1.0335 -1.3406,-1.876 -2.45,-2.2121 -0.1948,-0.0561 -0.395,-0.0941 -0.5974,-0.1072 -0.3178,-0.02 -0.6424,-0.0336 -0.9525,-0.1116 -0.9882,-0.2595 -1.3703,-1.5276 -1.3347,-2.4407 0.006,-0.1493 0.0741,-1.2035 0.1327,-1.1177 0.5576,0.8753 -0.0297,1.8231 1.2091,1.0427 0.2709,-0.171 0.5012,-0.3725 0.8164,-0.4641 0.8482,-0.2387 1.7846,0.1486 2.4916,0.5949 0.1398,0.0892 0.2756,0.1847 0.4071,0.2857 z"
               class="fil7 str2"
               style="fill:none;stroke:#000000;stroke-width:0.17640001"
               inkscape:connector-curvature="0" /></g></g></g></g></g><path
     id="path3177"
     d="m 405.76099,137.12005 c 54.54863,-6.37412 109.09431,35.05787 124.24654,86.05033 15.15194,41.43227 9.09133,143.4144 84.85016,133.85418"
     style="fill:none"
     inkscape:connector-curvature="0"
     class="fil3" /><g
     id="g3179"
     style="fill-rule:evenodd"
     transform="matrix(18.579992,0,0,19.540033,-2728.3653,-859.79281)"><path
       id="path3181"
       d="m 167.98,48.132 0,1e-4 -4.5284,2.8214 0,-5.6429 4.5284,2.8214 z m -2.2642,1.4108 m -2.2642,-1.4108 m 2.2642,-1.4107"
       style="fill:#990000;fill-rule:nonzero;stroke:#1f1a17;stroke-width:0.2"
       inkscape:connector-curvature="0"
       class="fil10 str0" /><path
       id="path3183"
       d="m 168.78,48.229 0,1e-4 4.5284,2.8214 0,-5.642 -4.53,2.821 z m 2.2642,1.4108 m 2.2642,-1.4108 m -2.2642,-1.4107"
       style="fill:#990000;fill-rule:nonzero;stroke:#1f1a17;stroke-width:0.2"
       inkscape:connector-curvature="0"
       class="fil10 str0" /><rect
       id="rect3185"
       style="fill:none;stroke:#1f1a17;stroke-width:0.2"
       class="fil3 str0"
       height="0.20893"
       width="0.52235001"
       y="49.219002"
       x="166.10001" /><ellipse
       id="ellipse3187"
       style="fill:#990000;stroke:#1f1a17;stroke-width:0.2"
       cy="48.155998"
       rx="1.6546"
       ry="1.045"
       class="fil11 str0"
       cx="168.36" /></g></svg>