<?xml version="1.0" encoding="iso-8859-1"?>
<!DOCTYPE svg PUBLIC "-//W3C//DTD SVG 20000303 Stylable//EN"
"http://www.w3.org/TR/2000/03/WD-SVG-20000303/DTD/svg-20000303-stylable.dtd">

<svg width="1.9790in" height="1.6700in" viewBox="0 0 999 843" xmlns="http://www.w3.org/2000/svg">

<path style="fill:#96baba" d="M289,551 l-14,2 -16,4 -15,3 -16,5 -16,4 -17,6 -15,6 -16,7 -15,7 -14,9 -13,8 -12,10 -11,11 -9,12 -8,12 -5,13 156,49 29,5 1,3 0,10 2,14 3,15 3,17 4,15 5,12 7,8 4,2 5,2 6,1 6,1 8,2 7,0 8,1 7,1 7,0 7,1 7,0 5,0 5,0 4,0 2,0 1,0 177,14 2,0 7,0 9,0 14,0 15,0 16,-1 19,0 19,0 18,0 19,-1 18,-1 15,0 14,0 11,-1 8,0 4,-1 2,0 3,-1 5,-1 4,-2 6,-1 6,-2 7,-1 6,-2 7,-2 6,-2 6,-2 6,-2 5,-1 5,-2 4,-1 4,-1 5,-2 7,-3 6,-4 7,-4 6,-4 6,-4 5,-3 4,-1 6,-2 9,-4 11,-3 13,-5 12,-5 11,-4 8,-5 5,-3 3,-4 5,-5 4,-8 5,-8 5,-8 4,-7 3,-7 1,-4 1,-8 -2,-12 -3,-16 -7,-17 -2,-5 -3,-5 -4,-5 -4,-5 -4,-4 -5,-4 -6,-4 -6,-2 -8,-3 -9,-4 -9,-3 -10,-4 -10,-3 -10,-4 -10,-4 -10,-3 -9,-3 -8,-3 -8,-3 -6,-2 -6,-2 -4,-2 -3,-1 -1,0 -468,-35 -2,0 -3,1 -7,0 -8,1 -10,1 -12,1 -14,2 -15,3z" />
<path style="fill:#000" d="M35,222 l79,-36 246,-87 10,-2 9,-3 9,-2 9,-3 9,-2 10,-2 10,-2 10,-2 10,-1 10,-1 10,0 10,0 10,0 11,1 10,2 10,3 19,3 21,3 23,2 24,2 24,3 25,2 24,1 24,2 23,1 21,2 19,1 17,1 14,0 10,1 7,0 2,0 11,2 11,1 11,1 11,1 12,1 11,1 11,2 11,1 11,2 10,2 10,2 9,3 10,3 8,4 7,4 7,5 5,4 4,5 4,6 2,6 2,6 2,7 0,8 -1,9 3,6 0,6 -2,7 -3,5 -3,5 -2,6 -2,5 -1,5 -33,247 1,8 0,7 0,7 -1,7 -2,6 -3,7 -3,5 -4,6 -4,5 -5,5 -5,5 -6,5 -6,4 -6,4 -7,4 -7,4 -6,5 -7,3 -7,4 -7,4 -6,3 -6,4 -7,3 -6,4 -17,9 -17,8 -18,10 -17,8 -18,8 -18,9 -17,8 -17,8 -18,7 -18,8 -18,7 -18,7 -18,7 -18,6 -19,6 -18,5 -7,0 -8,1 -8,0 -7,1 -9,0 -7,0 -7,-1 -7,-1 -3,0 -5,-1 -6,0 -7,-1 -6,0 -5,-1 -4,0 -1,0 -2,-1 -4,0 -4,0 -6,-1 -7,-1 -8,-1 -9,-1 -10,-1 -11,-1 -11,-1 -12,-2 -14,-1 -13,-1 -14,-2 -14,-1 -15,-2 -15,-2 -15,-1 -15,-2 -16,-2 -15,-1 -15,-2 -15,-1 -15,-2 -14,-1 -15,-2 -14,-1 -13,-2 -12,-1 -12,-1 -11,-1 -11,-1 -9,-5 -7,-5 -5,-7 -3,-8 -3,-9 -2,-9 -2,-9 -1,-9 -4,-59 -1,-58 -1,-59 -4,-58 -1,-49 -3,-3 -3,-3 -4,-1 -4,0 -4,-5 -5,-6 -4,-5 -4,-6 -3,-5 -2,-6 -2,-6 0,-6 3,-9 3,-9 4,-9 4,-8 4,-9 5,-8 5,-7 6,-7z" />
<path style="fill:#56aaff" d="M309,379 l-252,-25 1,11 0,12 1,11 1,11 9,240 1,23 6,2 6,1 6,2 6,2 5,1 7,2 6,2 6,1 5,0 5,-1 5,0 6,0 5,1 5,0 5,0 4,1 12,1 12,2 13,1 12,2 13,2 12,1 12,1 12,2 13,1 12,1 13,2 12,1 13,1 12,1 13,1 12,2 13,1 12,1 12,1 13,1 12,1 13,1 12,1 13,1 12,1 13,1 12,0 12,1 13,1 12,1 13,1 12,0 0,0 2,-62 1,-91 2,-95 1,-71 -16,0 -18,0 -19,0 -20,-1 -22,-1 -20,-1 -21,-1 -21,-2 -19,-1 -18,-2 -16,-1 -14,-2 -12,-1 -8,0 -6,-1 -2,0z" />
<path style="fill:#075baf" d="M594,389 l-3,1 -4,1 -3,0 -4,1 -5,0 -4,0 -5,1 -5,0 -1,71 -2,95 -1,91 -2,62 112,-41 17,-7 16,-7 17,-7 16,-8 17,-7 16,-8 17,-8 16,-8 17,-8 16,-8 16,-9 16,-9 15,-10 16,-9 15,-11 15,-10 5,-31 5,-31 4,-31 4,-32 5,-31 3,-31 4,-31 4,-30 0,-8 1,-7 0,-6 0,-8 -5,2 -6,2 -8,3 -9,3 -9,3 -10,4 -11,4 -13,5 -12,4 -13,5 -14,5 -14,5 -15,5 -14,6 -15,5 -15,5 -15,5 -15,6 -15,5 -14,5 -14,5 -14,5 -13,4 -13,4 -12,5 -11,4 -10,3 -10,4 -8,2 -8,3 -6,2 -5,1z" />
<path style="fill:#166bbf" d="M561,393 l0,-4 0,-4 0,-3 0,-3 -4,0 -7,1 -8,-1 -10,0 -12,0 -13,-1 -15,-1 -15,0 -17,-1 -17,-1 -19,-1 -19,-1 -19,-2 -20,-1 -19,-1 -20,-2 -20,-1 -19,-2 -19,-1 -19,-1 -17,-1 -17,-2 -17,-1 -14,-1 -14,-1 -12,-1 -11,0 -10,-1 -7,-1 -5,0 -4,0 -1,0 -65,-12 0,4 1,3 0,3 0,3 252,25 2,0 6,1 8,0 12,1 14,2 16,1 18,2 19,1 21,2 21,1 20,1 22,1 20,1 19,0 18,0 16,0z" />
<path style="fill:#00267a" d="M960,246 l-3,3 -217,74 -125,43 -6,3 -7,2 -6,2 -7,2 -7,1 -7,1 -7,1 -7,1 0,3 0,3 0,4 0,4 5,0 5,-1 4,0 5,0 4,-1 3,0 4,-1 3,-1 5,-1 6,-2 8,-3 8,-2 10,-4 10,-3 11,-4 12,-5 13,-4 13,-4 14,-5 14,-5 14,-5 15,-5 15,-6 15,-5 15,-5 15,-5 14,-6 15,-5 14,-5 14,-5 13,-5 12,-4 13,-5 11,-4 10,-4 9,-3 9,-3 8,-3 6,-2 5,-2 0,-3 0,-3 0,-4 0,-4z" />
<path style="fill:#000" d="M271,586 l0,-6 0,-6 -3,-4 -5,-3 -34,-8 0,-4 2,-2 2,-3 3,-2 2,1 2,1 2,2 2,1 2,1 2,1 2,2 2,1 0,-8 -1,-9 -2,-11 -2,-15 -11,-22 -11,-2 -6,0 -6,-1 -7,-1 -5,-1 -6,-2 -6,-2 -7,-2 -9,-3 0,6 8,9 2,10 -2,10 -4,10 -5,10 -4,11 -2,11 2,11 4,14 7,12 9,11 10,10 11,8 12,7 13,6 14,3 2,-4 3,-6 2,-7 3,-7 3,-7 4,-8 3,-7 3,-6z" />
<path style="fill:#000" d="M395,492 l2,-4 2,-3 2,-3 3,-3 2,-3 2,-4 2,-4 1,-5 -3,-4 -3,-2 -3,0 -3,1 -4,2 -3,2 -4,2 -3,0 -6,-9 -6,-7 -8,-6 -7,-5 -8,-4 -8,-4 -8,-3 -9,-2 -7,-1 -8,0 -7,0 -7,1 -7,1 -7,1 -6,1 -6,2 -7,3 -6,3 -5,4 -6,4 -5,4 -5,6 -4,6 -5,6 39,42 7,-4 6,-3 5,-4 6,-3 5,-4 6,-3 6,-3 7,-3 5,7 -2,2 -2,2 -3,1 -2,1 -3,1 -2,1 -2,2 -2,2 7,4 11,2 12,1 12,0 12,0 9,0 8,0 2,1 15,-7 6,-8z" />
<path style="fill:#000" d="M415,509 l-2,-3 -3,-2 -2,0 -2,2 -2,2 -3,2 -2,2 -3,2 -2,1 -3,1 -2,1 -3,1 -3,1 -3,2 -3,1 -2,0 -3,2 -3,2 -4,1 -3,0 -4,1 -3,2 -4,3 -5,4 4,11 1,11 -1,11 -3,13 -2,1 -3,-1 -4,0 -3,-2 -3,-1 -4,-2 -3,-1 -2,-1 1,-7 0,-8 -2,-6 -5,-5 -5,5 -4,5 -4,6 -3,5 -4,6 -4,6 -3,5 -4,6 -1,3 -1,4 0,6 1,6 1,2 1,5 2,5 1,3 3,5 2,4 1,4 1,3 1,3 2,4 2,4 4,5 5,1 2,-2 1,-4 2,-5 9,1 9,1 9,0 8,0 9,-1 8,-2 8,-4 7,-6 11,-15 8,-13 4,-12 3,-12 1,-11 1,-12 0,-11 2,-12 0,-7 0,-7 1,-9 1,-9z" />
<path style="fill:#075baf" d="M846,268 l9,-3 8,-3 9,-3 8,-2 9,-3 9,-3 8,-3 9,-3 8,-3 8,-3 9,-4 8,-4 8,-4 8,-4 8,-4 8,-5 -1,-13 -1,-12 -2,-12 -6,-10 -3,0 -3,1 -3,1 -3,2 -3,2 -3,2 -3,2 -3,2 -12,4 -12,4 -12,4 -12,4 -13,4 -12,4 -12,5 -12,4 -12,5 -12,4 -12,4 -12,4 -12,5 -12,4 -12,4 -12,4 -12,4 -13,4 -12,4 -12,4 -12,4 -13,3 -12,4 -12,3 -12,3 -13,3 -12,3 -13,3 -12,3 -13,2 -13,3 -12,2 1,14 2,16 2,16 1,15 3,0 2,0 3,0 2,-1 3,0 2,0 3,0 3,0 16,-6 16,-6 17,-5 16,-6 16,-5 16,-5 17,-6 16,-6 17,-5 16,-6 17,-5 16,-6 17,-6 17,-5 17,-6 17,-6z" />
<ellipse style="fill:#dbeaea" cx="271" cy="469" rx="29" ry="24" />
<path style="fill:#edf4f4" d="M379,470 l1,1 3,0 2,0 3,0 3,0 3,0 2,0 2,0 -2,5 -2,3 -4,4 -4,4 -4,3 -4,3 -4,2 -3,1 -7,0 -8,0 -7,0 -7,1 -8,0 -6,1 -6,1 -5,1 0,-1 2,-2 3,-1 4,-2 3,-1 3,-1 2,-2 0,-1 -2,-7 -3,-6 -4,-7 -4,-6 -5,-6 -5,-6 -6,-6 -5,-6 14,-4 13,-1 10,2 9,5 9,7 8,7 8,8 8,7z" />
<path style="fill:#edf4f4" d="M291,608 l3,-4 2,-5 3,-4 2,-5 3,-5 2,-5 2,-5 3,-5 1,3 0,6 1,5 1,3 6,2 5,2 5,2 5,2 5,1 6,1 5,2 6,0 5,1 5,-1 6,0 5,-1 5,-2 5,-3 4,-3 5,-4 -1,8 -2,7 -3,7 -5,6 -5,6 -6,5 -6,5 -6,5 -5,2 -6,1 -6,1 -6,0 -6,-1 -6,-1 -7,0 -6,-1 -3,2 -1,5 -2,5 -3,3 -1,-4 -2,-5 -2,-6 -2,-7 -2,-6 -2,-6 -2,-5 -2,-4z" />
<path style="fill:#dbeaea" d="M399,522 l-1,9 0,9 -1,9 -1,8 -3,8 -4,7 -6,5 -9,4 -3,0 -4,-1 -3,0 -2,3 1,-11 -1,-10 -1,-10 -1,-10 5,-3 5,-3 5,-3 4,-2 5,-3 5,-2 5,-3 5,-1z" />
<path style="fill:#0054a8" d="M368,112 l-274,95 -51,27 -3,5 -1,6 2,6 6,3 178,9 2,0 2,0 2,0 5,1 10,0 10,0 11,1 11,0 10,1 11,0 10,1 11,1 11,1 10,1 10,1 11,1 10,1 10,1 10,1 10,1 7,0 7,1 8,0 7,1 7,0 8,1 7,0 7,1 -7,-187 -5,0 -6,1 -5,1 -5,1 -5,1 -6,2 -5,1 -6,1 -5,2 -5,1 -5,2 -6,1 -5,1 -5,2 -5,1 -6,1z" />
<path style="fill:#56aaff" d="M555,298 l-4,0 -3,1 -4,0 -3,1 -4,0 -3,0 -4,1 -3,0 -7,0 -6,-1 -7,0 -6,0 -7,-1 -6,0 -6,0 -6,-1 -8,1 -8,0 -9,0 -9,0 -9,0 -10,0 -10,0 -10,0 -11,-1 -10,0 -10,0 -10,-1 -10,0 -9,-1 -8,0 -9,-1 -10,0 -10,-1 -8,0 -7,-1 -7,0 -7,0 -7,-1 -7,0 -8,0 -9,0 -10,0 -11,0 -14,0 -16,0 -18,0 -21,0 -18,0 -17,-1 -14,-1 -14,-2 -10,-1 -9,-2 -8,-2 -6,-2 -5,-2 -5,-2 -3,-2 -2,-2 -1,-2 -1,-2 -1,-1 0,-1 -2,-1 -2,0 -2,-1 -2,-1 -2,-2 -2,-1 -2,-1 -2,-2 -1,8 -2,7 -3,8 -2,8 -1,7 0,7 2,6 5,6 85,20 3,0 5,1 6,0 8,1 9,1 10,1 12,1 12,1 14,1 14,2 15,1 16,1 16,1 17,1 17,2 18,1 18,1 18,1 18,1 18,1 18,1 18,1 18,1 17,1 17,0 17,1 16,0 15,0 14,0 14,0 13,0 11,-1 -1,-15 -2,-16 -2,-16 -1,-14z" />
<path style="fill:#e0efff" d="M156,292 l21,0 18,0 16,0 14,0 11,0 10,0 9,0 8,0 7,0 7,1 7,0 7,0 7,1 8,0 10,1 10,0 9,1 8,0 9,1 10,0 10,1 10,0 10,0 11,1 10,0 10,0 10,0 9,0 9,0 9,0 8,0 8,-1 -21,-1 -20,-2 -21,-1 -20,-2 -20,-1 -21,-1 -19,-2 -21,-1 -20,-1 -20,-2 -20,-1 -20,-1 -20,-1 -21,-1 -20,-1 -21,0 -7,-1 -6,0 -7,0 -7,0 -7,0 -7,0 -7,-1 -7,0 -7,0 -7,-1 -7,-1 -7,-1 -6,-1 -7,-2 -7,-2 -6,-2 0,1 1,1 1,2 1,2 2,2 3,2 5,2 5,2 6,2 8,2 9,2 10,1 14,2 14,1 17,1 18,0z" />
<path style="fill:#4296ea" d="M856,130 l-8,-1 -8,-1 -9,-1 -10,-1 -10,-1 -11,-1 -11,-1 -13,-1 -5,0 -6,1 -6,0 -7,0 -6,0 -7,0 -8,0 -7,0 -8,0 -7,-1 -7,0 -8,0 -7,-1 -8,0 -7,0 -6,0 -8,0 -7,-1 -6,0 -5,-1 -4,0 -3,-1 -4,-1 -3,0 -3,-1 -4,-1 -4,-1 -5,-1 -6,0 -8,-1 -9,-1 -11,-1 -9,0 -9,-1 -8,-1 -8,-1 -8,-1 -6,-2 -7,-1 -6,-1 -6,-2 -5,-1 -4,-1 -5,-1 -3,-1 -3,-1 -3,-1 -2,-1 -2,0 -2,0 -2,-1 -1,0 -3,0 -4,0 -3,0 -2,0 -3,0 -3,0 -3,1 -3,0 7,187 14,0 13,1 13,0 13,0 13,0 13,0 13,-1 13,-1 12,-1 13,-2 13,-2 12,-2 12,-3 12,-4 12,-4 11,-5 19,-6 19,-6 19,-6 19,-6 19,-6 18,-6 20,-6 19,-7 18,-7 19,-7 19,-7 18,-7 19,-7 18,-8 17,-8 18,-8 -104,-18z" />
<path style="fill:#d1e8ff" d="M666,121 l6,0 7,0 8,0 7,1 8,0 7,0 7,1 8,0 7,0 8,0 7,0 6,0 7,0 6,0 6,-1 5,0 -19,-2 -20,-2 -22,-2 -21,-2 -22,-2 -21,-2 -22,-2 -21,-2 -20,-3 -20,-2 -18,-1 -16,-2 -16,-1 -13,-2 -12,-1 -9,-1 2,1 3,1 3,1 3,1 5,1 4,1 5,1 6,2 6,1 7,1 6,2 8,1 8,1 8,1 9,1 9,0 11,1 9,1 8,1 6,0 5,1 4,1 4,1 3,1 3,0 4,1 3,1 4,0 5,1 6,0 7,1 8,0z" />
<path style="fill:#edf4f4" d="M205,502 l-2,-2 -2,0 -2,-2 -2,-3 5,2 4,1 5,2 5,2 5,1 4,2 5,2 5,2 2,8 1,7 1,7 1,7 -6,-1 -6,0 -4,1 -3,3 -3,3 -3,4 -4,3 -5,3 -3,9 -3,10 -4,10 -2,10 -8,-11 -3,-12 0,-11 2,-12 5,-12 5,-12 5,-11 5,-10z" />
<path style="fill:#dbeaea" d="M255,584 l-12,36 -4,0 -5,0 -3,-2 -4,-1 -4,-3 -3,-2 -4,-3 -3,-3 6,-34 36,12z" />
<path style="fill:#000" d="M956,350 l1,98 0,86 -2,61 0,24 0,9 -1,10 -1,9 -3,8 -3,8 -4,8 -4,7 -4,7 -4,2 -3,2 -4,2 -4,2 -4,1 -5,0 -4,0 -4,-2 -3,2 -3,2 -3,1 -4,-1 -1,-1 -3,3 -4,2 -4,1 -4,1 -4,0 -5,0 -4,1 -4,1 -3,-1 -4,0 -3,0 -3,-1 -4,0 -2,-1 -3,-1 -2,-2 -3,2 -3,1 -3,0 -3,-1 -2,-3 -4,-1 -4,1 -3,-1 -2,1 -1,0 -2,0 -2,-1 -3,0 -2,-1 -1,-1 -2,-1 -11,-4 -8,-5 -7,-6 -5,-7 -4,-8 -3,-8 -3,-9 -3,-10 -1,-15 -1,-38 -2,-55 -2,-65 -3,-67 -2,-62 -3,-51 -2,-31 3,-29 2,-31 4,-29 6,-29 6,-10 9,-9 11,-9 11,-9 12,-7 9,-6 7,-6 2,-3 1,-4 0,-3 -1,-2 -2,-3 -1,-2 -1,-2 1,-3 2,-4 0,-6 0,-5 -1,-4 -3,-4 0,-3 0,-7 0,-8 1,-6 5,-3 6,-2 6,-1 6,0 8,0 6,1 7,0 6,1 4,7 2,7 0,8 0,8 -4,4 -2,4 1,4 1,6 1,6 -2,5 -2,6 2,6 7,6 7,5 8,4 8,4 8,4 7,5 7,7 5,7 8,10 7,18 6,25 5,29 4,34 3,37 3,39 1,40z" />
<path style="fill:#e5ffff" d="M858,32 l-3,-1 -4,-1 -5,-1 -6,0 -6,0 -6,1 -5,0 -4,1 -1,-3 0,-3 -1,-3 1,-8 4,-1 5,-1 6,-1 7,0 6,1 5,0 4,1 2,1 1,4 0,5 0,5 0,4z" />
<path style="fill:#60ff54" d="M892,690 l0,-1 2,-2 1,-1 1,-1 2,1 -1,2 -1,0 -2,1 -2,1z" />
<path style="fill:#60ff54" d="M855,53 l-5,-1 -4,-1 -4,0 -4,0 -4,0 -4,1 -4,1 -5,1 1,-4 0,-3 0,-3 0,-3 4,-1 4,-1 4,-1 4,0 5,0 4,1 4,1 4,1 -1,3 0,2 0,3 1,4z" />
<path style="fill:#60ff54" d="M823,691 l0,-2 6,4 -1,0 -2,0 -1,-1 -2,-1z" />
<path style="fill:#38ff5b" d="M867,90 l-4,-2 -3,-2 -3,-3 -2,-3 -2,-3 -2,-4 0,-4 0,-5 -3,-1 -4,0 -3,0 -4,-1 -3,1 -3,0 -3,1 -3,0 0,7 -2,7 -4,7 -6,5 -3,2 -4,2 -4,2 -3,2 -1,1 0,1 -1,2 0,1 -6,38 -2,65 -1,83 2,94 2,95 3,88 3,73 2,49 2,1 3,0 2,0 2,0 13,-10 3,0 3,1 3,1 2,1 2,3 2,3 1,3 1,3 4,0 3,0 3,0 4,0 3,0 4,0 3,0 4,0 -12,-554 2,-21 3,-15 4,-9 3,-5z" />
<path style="fill:#9ef97f" d="M839,106 l-2,14 -3,39 -3,56 3,68 2,49 2,109 1,112 -3,58 -1,0 -2,0 -2,0 -3,-1 -3,0 -3,-1 -2,-1 0,-1 -2,-67 -3,-154 0,-164 5,-100 0,-2 2,-3 3,-4 3,-5 4,-4 3,-3 3,1 1,4z" />
<path style="fill:#fff" d="M833,122 l-1,-1 -2,-1 -4,-1 -4,-1 -4,0 -5,1 -5,3 -3,5 -1,10 -2,27 -2,37 -1,42 0,41 2,35 5,23 9,5 6,-12 4,-27 3,-35 2,-42 2,-40 1,-35 0,-25 0,-9z" />
<path style="fill:#fff" d="M819,381 l-2,-1 -4,0 -3,6 0,17 3,14 3,0 2,-6 1,-3 0,-27z" />
<path style="fill:#60ff54" d="M941,655 l1,-3 1,-3 0,-3 1,-2 2,-62 1,-107 0,-114 -4,-83 0,-3 0,-11 0,-16 -2,-19 -2,-22 -3,-23 -5,-23 -8,-22 -2,-5 -3,-5 -3,-4 -3,-4 -4,-4 -3,-3 -4,-3 -4,-3 -3,-3 -4,-3 -4,-2 -4,-2 -3,-2 -4,-2 -4,-2 -4,-2 -3,5 -4,9 -3,15 -2,21 12,554 2,0 2,-1 2,0 2,0 2,0 1,-1 1,0 1,-1 -2,-4 0,-2 2,-4 3,-6 4,-6 4,-5 5,-2 5,2 5,7 2,4 2,4 1,4 2,3 2,0 2,0 2,-1 2,-1 2,-1 2,-2 2,-1 1,-1 1,-9 2,-8 4,-6 6,-1z" />
<path style="fill:#60ff54" d="M755,140 l-5,25 -3,25 -2,26 -2,26 2,44 3,103 4,121 2,96 1,9 0,9 2,9 2,8 2,0 3,0 3,1 2,2 3,2 2,3 2,5 2,6 1,8 2,6 2,5 2,5 4,1 3,1 4,1 4,1 -2,-49 -3,-73 -3,-88 -2,-95 -2,-94 1,-83 2,-65 6,-38 0,-1 1,-2 0,-1 1,-1 -7,4 -7,4 -6,5 -5,5 -6,5 -4,6 -5,6 -4,7z" />
<path style="fill:#2df451" d="M759,641 l1,5 1,4 2,5 2,4 2,3 2,4 3,3 2,3 2,4 3,3 3,2 3,3 -2,-5 -2,-5 -2,-6 -1,-8 -2,-6 -2,-5 -2,-3 -3,-2 -2,-2 -3,-1 -3,0 -2,0z" />
<path style="fill:#2df451" d="M878,687 l2,4 2,-3 2,-4 2,-4 3,-3 3,-1 4,-1 4,0 3,1 2,2 2,2 1,3 0,3 1,0 1,0 2,0 1,0 -2,-3 -1,-4 -2,-4 -2,-4 -5,-7 -5,-2 -5,2 -4,5 -4,6 -3,6 -2,4 0,2z" />
<path style="fill:#2df451" d="M941,655 l-6,1 -4,6 -2,8 -1,9 5,-5 3,-6 3,-7 2,-6z" />
<path style="fill:#9ef97f" d="M797,112 l-1,3 -2,10 -3,18 -4,27 -3,38 -2,50 -1,64 0,78 -1,5 -4,8 -4,0 -2,-19 -1,-25 0,-38 0,-47 1,-49 3,-48 5,-39 7,-27 12,-9z" />
<path style="fill:#e0fcd6" d="M761,640 l1,0 2,0 2,1 3,1 4,4 3,6 3,9 2,13 1,1 1,3 2,4 2,3 3,1 -1,-2 -3,-4 -2,-4 -1,-3 0,-1 0,-5 0,-6 -2,-7 -3,-7 -4,-5 -7,-4 -9,0 0,0 1,1 1,1 1,0z" />
<path style="fill:#fff" d="M807,666 l0,-1 2,-3 3,-5 3,-5 3,-6 4,-4 4,-3 3,-1 4,2 3,4 2,6 3,6 2,7 2,5 1,4 0,1 3,0 0,-1 -1,-5 -1,-5 -2,-7 -2,-7 -4,-6 -4,-4 -5,-2 -6,1 -5,3 -4,5 -4,5 -2,6 -3,5 -1,3 0,1 2,1z" />
<path style="fill:#fff" d="M877,672 l0,-1 1,-4 2,-6 2,-7 2,-6 2,-6 3,-4 3,-1 3,1 3,4 3,5 3,5 3,6 1,5 2,3 0,2 2,0 0,-2 -1,-4 -2,-5 -2,-6 -3,-7 -3,-5 -4,-4 -6,-1 -4,2 -4,4 -3,6 -2,7 -2,7 -1,6 -1,5 0,1 3,0z" />
<path style="fill:#60ff54" d="M827,650 l-2,21 -2,0 -4,1 -5,2 -4,3 0,0 1,-2 2,-5 4,-5 3,-5 4,-5 2,-3 1,-2z" />
<path style="fill:#60ff54" d="M831,653 l1,1 4,4 4,8 4,15 -1,-1 -4,-3 -4,-2 -4,-2 0,-20z" />
<ellipse style="fill:#2df451" cx="786" cy="666" rx="6" ry="19" />
<ellipse style="fill:#2df451" cx="886" cy="662" rx="7" ry="13" />
<path style="fill:#e0fcd6" d="M928,680 l0,-2 0,-4 1,-6 1,-7 2,-7 3,-6 4,-3 5,-1 0,-5 -1,0 -3,1 -4,1 -5,3 -4,5 -3,7 -1,11 2,14 3,-1z" />
<path style="fill:#999" d="M816,682 l0,-1 2,-2 3,-1 4,-2 4,-1 4,2 4,3 3,7 3,0 0,-1 0,-3 -2,-3 -2,-4 -4,-2 -5,-1 -7,2 -9,4 2,3z" />
<path style="fill:#999" d="M882,679 l1,-2 2,-4 4,-3 6,0 3,-4 -1,0 -1,-1 -2,0 -3,1 -3,1 -3,2 -3,3 -3,5 3,2z" />
<path style="fill:#999" d="M929,670 l0,7 3,-4 -3,-3z" />
<ellipse style="fill:#2df451" cx="838" cy="58" rx="22" ry="2" />
<ellipse style="fill:#fff" cx="835" cy="57" rx="14" ry="2" />
<path style="fill:#fff" d="M835,38 l0,2 0,4 0,4 -1,4 2,-1 0,-1 2,-3 0,-4 0,-5 -3,0z" />
<ellipse style="fill:#1e1e1e" cx="840" cy="89" rx="31" ry="4" />
<path style="fill:#00c623" d="M815,93 l-1,1 -3,0 -4,2 -4,2 -5,2 -5,4 -5,4 -4,4 0,1 -1,1 0,1 2,0 2,-2 4,-2 4,-3 4,-4 5,-3 4,-3 4,-2 4,-1 4,0 0,-1 -2,-1 -3,0z" />
<path style="fill:#00c623" d="M841,90 l2,0 5,1 6,2 8,2 9,3 8,4 7,5 6,6 0,0 2,1 1,-1 -1,-2 -1,-1 -3,-2 -3,-4 -6,-3 -7,-4 -9,-3 -10,-3 -13,-2 -1,0 -1,0 0,1 1,0z" />
<ellipse style="fill:#00c623" cx="834" cy="82" rx="13" ry="1" />
<path style="fill:#60ff54" d="M843,67 l0,3 0,5 1,6 2,3 4,0 4,1 3,1 1,0 -2,-2 -3,-5 -3,-7 -1,-5 -1,-3 -2,0 -3,1 0,2z" />
<ellipse style="fill:#fff" cx="833" cy="71" rx="2" ry="9" />
<path style="fill:#000" d="M555,826 l-22,0 -21,-1 -20,-1 -21,-1 -19,-1 -18,-1 -17,-1 -16,-1 -15,-1 -13,0 -12,-1 -9,-1 -8,0 -6,-1 -4,0 -1,0 -9,0 -10,-2 -9,-2 -8,-3 -8,-3 -7,-4 -7,-4 -6,-5 -4,-8 -4,-8 -2,-8 4,-8 -3,-3 -2,-3 0,-4 1,-3 1,-1 -5,-7 -1,-9 0,-8 -1,-9 1,-6 0,-6 2,-6 3,-5 -2,-3 -1,-3 1,-4 1,-2 3,-3 1,-3 -1,-4 1,-3 0,-4 1,-4 1,-4 2,-3 4,-10 6,-8 6,-7 7,-5 8,-4 9,-3 10,-2 9,-3 1,0 3,0 4,0 7,0 7,0 9,0 10,1 12,0 13,0 13,0 14,0 15,0 16,0 16,0 17,0 16,0 17,0 17,1 17,0 16,0 17,0 16,0 15,0 15,0 14,0 13,0 12,0 11,0 11,0 8,0 7,0 6,0 7,1 7,1 7,0 8,1 7,1 8,1 7,1 7,1 8,1 7,1 8,1 7,2 7,1 7,2 7,2 7,2 10,7 9,9 9,11 8,12 6,12 6,10 5,7 4,2 3,1 3,0 3,-1 3,-1 2,-2 3,0 2,0 4,3 2,0 3,0 3,0 2,0 2,0 3,-1 2,-1 1,-2 1,0 2,0 4,0 3,1 4,0 4,0 4,1 3,1 4,11 1,12 -1,14 -2,13 -3,3 -4,1 -4,1 -4,0 -3,0 -4,0 -4,-1 -4,1 -2,-3 -2,-2 -2,-1 -2,0 -3,0 -2,0 -2,0 -3,1 -3,1 -3,0 -3,-1 -3,-2 -2,-1 -3,-1 -3,0 -4,1 -5,7 -6,8 -4,7 -5,8 -5,7 -5,8 -6,6 -8,5 -5,5 -8,4 -10,4 -12,3 -15,2 -16,3 -17,1 -19,2 -20,1 -21,1 -22,0 -22,0 -23,0 -24,0 -23,0 -23,-1z" />
<path style="fill:#e5ffff" d="M923,744 l3,-7 1,-11 0,-12 -1,-9 2,0 1,-1 1,0 2,0 1,0 3,0 3,0 4,1 2,9 0,12 -1,12 -2,5 -2,1 -2,0 -3,0 -2,0 -3,0 -2,0 -2,0 -3,0z" />
<path style="fill:#60ff54" d="M265,749 l2,1 1,1 1,1 1,1 -1,2 -1,-1 -1,-1 -1,-2 -1,-2z" />
<path style="fill:#60ff54" d="M904,740 l1,-9 0,-8 0,-8 -1,-9 3,1 3,0 3,0 3,0 2,8 0,9 -1,8 -2,8 -3,-1 -2,0 -3,0 -3,1z" />
<path style="fill:#60ff54" d="M267,680 l2,0 -4,7 0,-2 0,-1 1,-2 1,-2z" />
<path style="fill:#38ff5b" d="M865,750 l2,-4 3,-3 2,-3 4,-2 3,-2 4,-1 4,-1 5,1 2,-7 1,-6 -1,-7 -1,-6 -4,0 -3,0 -4,-1 -3,-1 -3,-2 -3,-3 -3,-3 -3,-3 -1,-3 -2,-4 -2,-4 -2,-4 -1,-1 -1,0 -1,-1 -2,0 -6,-2 -9,-2 -10,-2 -12,-1 -14,-2 -15,-1 -18,-2 -18,-1 -20,-1 -20,-1 -21,-1 -22,-1 -23,0 -23,-1 -24,-1 -24,0 -24,-1 -23,0 -24,-1 -24,0 -23,0 -22,0 -22,-1 -21,0 -20,0 -19,0 -18,0 -16,0 -15,0 -13,0 -11,0 -10,0 0,2 -1,3 0,2 -1,2 9,13 0,4 -1,3 -1,3 -1,2 -3,2 -2,2 -3,0 -3,1 -1,7 0,7 -1,7 0,7 554,12 11,1 10,2 8,1 7,2 5,2 3,2 3,2 2,2z" />
<path style="fill:#9ef97f" d="M850,722 l-1,0 -2,-1 -5,-1 -6,-1 -8,-1 -8,-1 -11,-2 -11,-1 -13,-2 -13,-1 -15,-1 -15,-1 -16,0 -17,-1 -17,1 -18,0 -4,0 -10,0 -15,0 -20,0 -24,-1 -27,0 -28,-1 -30,-1 -30,0 -29,-1 -27,-1 -26,-2 -21,-1 -18,-1 -12,-2 -7,-1 0,-3 1,-5 1,-6 3,-3 1,0 4,0 5,0 9,1 9,0 12,0 13,0 14,1 17,0 17,0 18,1 19,1 20,0 21,1 21,0 21,1 21,1 22,0 21,1 21,1 21,1 20,1 19,0 19,1 17,1 17,1 15,1 14,1 11,2 11,1 8,1 6,1 2,1 3,2 5,3 4,4 4,3 2,4 -1,2 -4,2z" />
<path style="fill:#fff" d="M773,711 l1,0 2,-2 2,-3 1,-4 0,-4 -2,-5 -5,-5 -9,-4 -1,0 -3,-1 -5,-1 -7,-1 -8,-1 -9,-1 -9,0 -9,-1 -9,0 -9,1 -7,1 -7,1 -6,3 -3,3 -1,5 1,5 2,3 4,2 6,2 7,2 8,1 8,2 9,0 10,1 9,1 9,0 8,0 7,0 6,0 5,0 3,0 1,0z" />
<path style="fill:#60ff54" d="M298,800 l3,1 2,1 3,0 3,1 4,1 5,0 7,1 7,0 8,1 9,0 11,1 11,1 11,0 13,1 12,1 14,1 14,0 14,1 14,1 15,0 14,1 15,1 14,0 15,1 14,1 14,0 14,1 13,0 13,0 12,0 12,1 11,0 10,0 9,-1 8,0 8,0 1,0 2,0 5,0 6,0 7,1 9,0 9,0 10,-1 11,0 11,-1 12,-1 12,-1 11,-2 12,-2 12,-3 10,-4 5,-2 5,-3 4,-2 4,-3 4,-4 4,-4 4,-3 3,-4 2,-3 3,-4 2,-3 2,-4 2,-4 2,-4 3,-4 2,-3 -2,-2 -3,-2 -3,-2 -5,-2 -7,-2 -8,-1 -10,-2 -11,-1 -554,-12 1,2 0,2 0,2 0,2 0,1 1,1 0,1 1,2 4,-2 1,0 5,3 5,3 6,4 4,4 2,5 -2,5 -7,4 -2,1 -2,1 -2,1 -2,1 -2,1 -2,0 -1,1 -2,1 1,4 1,4 2,4 2,4 5,0 4,1 4,1 4,2 3,2 2,2 2,2 0,4z" />
<path style="fill:#60ff54" d="M820,636 l-6,-2 -6,-1 -6,-2 -6,-1 -6,-2 -7,-1 -6,-1 -7,0 -6,-1 -6,-1 -7,-1 -6,0 -7,-1 -7,-1 -6,-1 -6,-1 -1,0 -2,0 -4,0 -5,0 -6,0 -8,0 -8,0 -10,0 -11,0 -11,0 -12,-1 -13,0 -14,0 -14,0 -14,0 -15,0 -15,0 -15,-1 -15,0 -16,0 -15,0 -15,0 -15,-1 -15,0 -14,0 -13,0 -14,0 -12,0 -12,-1 -11,0 -11,0 -9,0 -4,0 -4,0 -5,0 -4,0 -5,1 -4,0 -4,1 -5,1 0,2 0,3 -1,3 -1,2 -3,3 -4,2 -4,2 -6,1 -4,1 -4,1 -4,0 -3,1 -2,1 -3,1 -2,1 -2,1 -1,3 -2,3 -1,4 -1,4 10,0 11,0 13,0 15,0 16,0 18,0 19,0 20,0 21,0 22,1 22,0 23,0 24,0 24,1 23,0 24,1 24,0 24,1 23,1 23,0 22,1 21,1 20,1 20,1 18,1 18,2 15,1 14,2 12,1 10,2 9,2 6,2 2,0 1,1 1,0 1,1 -3,-7 -4,-6 -4,-6 -5,-6 -6,-6 -5,-5 -6,-5 -7,-4z" />
<path style="fill:#2df451" d="M319,618 l-5,1 -4,1 -5,2 -4,1 -3,2 -4,2 -3,3 -3,3 -4,2 -3,2 -3,3 -2,3 2,-1 2,-1 3,-1 2,-1 3,-1 4,0 4,-1 4,-1 6,-1 4,-2 4,-2 3,-3 1,-2 1,-3 0,-3 0,-2z" />
<path style="fill:#2df451" d="M269,735 l-4,2 3,3 3,2 4,2 3,3 1,3 0,4 0,3 -1,3 -2,2 -2,2 -3,1 -3,0 0,1 0,1 0,2 0,1 2,-1 1,-1 2,0 2,-1 2,-1 2,-1 2,-1 2,-1 7,-4 2,-5 -2,-5 -4,-4 -6,-4 -5,-3 -5,-3 -1,0z" />
<ellipse style="fill:#2df451" cx="286" cy="793" rx="12" ry="7" />
<path style="fill:#9ef97f" d="M846,679 l0,0 -3,-1 -4,-1 -6,-2 -7,-1 -10,-2 -12,-3 -15,-2 -18,-2 -20,-3 -24,-2 -26,-2 -30,-2 -33,-2 -38,-2 -41,-1 -1,-1 -4,-1 -4,-2 -3,-2 -2,-2 2,-2 6,-1 13,0 10,0 15,0 17,1 21,1 22,0 24,2 25,1 25,2 24,2 23,3 21,3 18,4 15,4 12,4 7,6 1,6z" />
<path style="fill:#e0fcd6" d="M321,620 l0,1 0,2 -1,2 -2,3 -4,4 -6,3 -10,2 -12,2 -2,1 -3,1 -3,1 -3,3 -1,2 1,-1 4,-2 4,-2 3,-1 1,0 5,1 6,-1 7,-1 7,-3 7,-4 3,-7 1,-9 0,0 -1,1 -1,1 0,1z" />
<path style="fill:#fff" d="M292,665 l1,0 4,2 4,3 5,3 5,4 5,4 3,4 0,4 -2,3 -4,3 -6,3 -6,2 -7,2 -5,1 -4,1 -1,0 -1,2 2,0 4,0 6,-1 7,-1 7,-3 6,-3 5,-4 2,-5 -1,-5 -3,-6 -5,-4 -5,-4 -5,-3 -5,-3 -3,-1 -2,-1 -1,3z" />
<path style="fill:#fff" d="M283,734 l1,1 4,1 6,2 7,2 6,3 6,3 4,3 2,3 -2,2 -4,3 -5,3 -6,2 -6,3 -5,1 -3,1 -2,1 0,2 1,0 4,-1 6,-1 6,-2 7,-3 6,-3 4,-4 1,-5 -2,-5 -4,-4 -6,-3 -7,-3 -7,-2 -6,-1 -4,-1 -2,0 0,2z" />
<path style="fill:#60ff54" d="M307,686 l-20,-4 0,-2 -1,-4 -1,-5 -4,-3 0,0 2,1 4,3 5,3 5,4 5,3 4,3 1,1z" />
<ellipse style="fill:#60ff54" cx="290" cy="695" rx="14" ry="6" />
<ellipse style="fill:#2df451" cx="293" cy="645" rx="18" ry="5" />
<path style="fill:#2df451" d="M306,752 l-1,0 0,0 -2,0 -1,-1 -3,0 -2,-2 -4,-2 -3,-3 -1,-1 -3,-2 -3,-2 -3,-2 1,1 4,1 4,1 5,2 5,3 4,2 3,3 0,2z" />
<path style="fill:#e0fcd6" d="M273,785 l2,0 4,1 6,1 7,1 7,3 6,3 3,4 1,5 4,1 0,-1 0,-4 -1,-4 -3,-4 -4,-5 -8,-3 -11,-2 -14,1 1,3z" />
<path style="fill:#999" d="M276,673 l1,0 1,3 2,3 2,3 0,5 -2,4 -3,4 -7,3 0,2 1,0 3,0 3,-1 4,-3 2,-3 1,-5 -1,-8 -4,-9 -3,2z" />
<path style="fill:#999" d="M276,739 l2,1 4,3 3,4 0,5 4,3 0,-2 0,-4 -3,-6 -8,-7 -2,3z" />
<path style="fill:#999" d="M283,787 l-7,-1 4,4 3,-3z" />
<ellipse style="fill:#2df451" cx="899" cy="722" rx="3" ry="21" />
<ellipse style="fill:#fff" cx="900" cy="719" rx="2" ry="13" />
<path style="fill:#fff" d="M918,720 l-1,0 -4,0 -4,0 -4,-1 1,2 1,0 2,2 4,1 5,0 0,-4z" />
<path style="fill:#1e1e1e" d="M866,692 l2,6 1,15 0,20 -7,22 3,-5 2,-4 3,-11 2,-16 -3,-21 -3,-6z" />
<path style="fill:#00c623" d="M864,698 l0,-1 -1,-3 -1,-4 -2,-4 -2,-6 -3,-5 -4,-4 -4,-4 0,-1 -2,0 0,0 0,1 1,2 2,4 3,4 3,4 4,5 2,5 2,4 1,4 0,4 1,0 1,-2 -1,-3z" />
<path style="fill:#00c623" d="M866,724 l0,1 -1,5 -2,7 -2,8 -3,8 -5,9 -5,7 -6,5 0,0 -1,2 0,1 3,-1 1,-1 2,-2 3,-4 4,-5 4,-7 4,-8 3,-11 3,-13 0,-1 -1,-1 0,0 -1,1z" />
<ellipse style="fill:#00c623" cx="874" cy="717" rx="2" ry="13" />
<path style="fill:#60ff54" d="M889,726 l0,0 -2,0 -3,0 -3,0 -3,0 -3,1 -2,1 -1,1 0,4 -1,5 -1,2 0,1 1,0 1,-1 3,-2 2,-2 3,-2 4,-1 2,-1 3,0 3,0 0,-3 -1,-2 -2,-1z" />
<ellipse style="fill:#fff" cx="885" cy="717" rx="9" ry="2" />

</svg>
