<?xml version="1.0" encoding="UTF-8" standalone="no"?>
<!-- Created with Inkscape (http://www.inkscape.org/) -->

<svg
   xmlns:dc="http://purl.org/dc/elements/1.1/"
   xmlns:cc="http://creativecommons.org/ns#"
   xmlns:rdf="http://www.w3.org/1999/02/22-rdf-syntax-ns#"
   xmlns:svg="http://www.w3.org/2000/svg"
   xmlns="http://www.w3.org/2000/svg"
   xmlns:sodipodi="http://sodipodi.sourceforge.net/DTD/sodipodi-0.dtd"
   xmlns:inkscape="http://www.inkscape.org/namespaces/inkscape"
   width="100"
   height="100"
   id="svg9131"
   sodipodi:version="0.32"
   inkscape:version="0.48.4 r9939"
   version="1.0"
   sodipodi:docname="advanced_colors.svg">
  <sodipodi:namedview
     id="base"
     pagecolor="#ffffff"
     bordercolor="#666666"
     borderopacity="1.0"
     inkscape:pageopacity="0.0"
     inkscape:pageshadow="2"
     inkscape:zoom="2.229356"
     inkscape:cx="84.30551"
     inkscape:cy="16.429984"
     inkscape:document-units="px"
     inkscape:current-layer="layer1"
     height="100px"
     width="100px"
     inkscape:window-width="1364"
     inkscape:window-height="719"
     inkscape:window-x="0"
     inkscape:window-y="0"
     showgrid="false"
     inkscape:snap-global="false"
     inkscape:window-maximized="1" />
  <defs
     id="defs9133" />
  <metadata
     id="metadata9136">
    <rdf:RDF>
      <cc:Work
         rdf:about="">
        <dc:format>image/svg+xml</dc:format>
        <dc:type
           rdf:resource="http://purl.org/dc/dcmitype/StillImage" />
        <dc:title></dc:title>
      </cc:Work>
    </rdf:RDF>
  </metadata>
  <g
     style="display:inline"
     id="layer1"
     inkscape:groupmode="layer"
     inkscape:label="Calque 1">
    <g
       id="g3529"
       transform="matrix(0.09353524,0,0,0.11153829,4.0599637,3.7019816)">
      <path
         id="path3343"
         d="m 289,551 -14,2 -16,4 -15,3 -16,5 -16,4 -17,6 -15,6 -16,7 -15,7 -14,9 -13,8 -12,10 -11,11 -9,12 -8,12 -5,13 156,49 29,5 1,3 0,10 2,14 3,15 3,17 4,15 5,12 7,8 4,2 5,2 6,1 6,1 8,2 7,0 8,1 7,1 7,0 7,1 7,0 5,0 5,0 4,0 2,0 1,0 177,14 2,0 7,0 9,0 14,0 15,0 16,-1 19,0 19,0 18,0 19,-1 18,-1 15,0 14,0 11,-1 8,0 4,-1 2,0 3,-1 5,-1 4,-2 6,-1 6,-2 7,-1 6,-2 7,-2 6,-2 6,-2 6,-2 5,-1 5,-2 4,-1 4,-1 5,-2 7,-3 6,-4 7,-4 6,-4 6,-4 5,-3 4,-1 6,-2 9,-4 11,-3 13,-5 12,-5 11,-4 8,-5 5,-3 3,-4 5,-5 4,-8 5,-8 5,-8 4,-7 3,-7 1,-4 1,-8 -2,-12 -3,-16 -7,-17 -2,-5 -3,-5 -4,-5 -4,-5 -4,-4 -5,-4 -6,-4 -6,-2 -8,-3 -9,-4 -9,-3 -10,-4 -10,-3 -10,-4 -10,-4 -10,-3 -9,-3 -8,-3 -8,-3 -6,-2 -6,-2 -4,-2 -3,-1 -1,0 -468,-35 -2,0 -3,1 -7,0 -8,1 -10,1 -12,1 -14,2 -15,3 z"
         style="fill:#96baba"
         inkscape:connector-curvature="0" />
      <path
         id="path3345"
         d="m 35,222 79,-36 246,-87 10,-2 9,-3 9,-2 9,-3 9,-2 10,-2 10,-2 10,-2 10,-1 10,-1 10,0 10,0 10,0 11,1 10,2 10,3 19,3 21,3 23,2 24,2 24,3 25,2 24,1 24,2 23,1 21,2 19,1 17,1 14,0 10,1 7,0 2,0 11,2 11,1 11,1 11,1 12,1 11,1 11,2 11,1 11,2 10,2 10,2 9,3 10,3 8,4 7,4 7,5 5,4 4,5 4,6 2,6 2,6 2,7 0,8 -1,9 3,6 0,6 -2,7 -3,5 -3,5 -2,6 -2,5 -1,5 -33,247 1,8 0,7 0,7 -1,7 -2,6 -3,7 -3,5 -4,6 -4,5 -5,5 -5,5 -6,5 -6,4 -6,4 -7,4 -7,4 -6,5 -7,3 -7,4 -7,4 -6,3 -6,4 -7,3 -6,4 -17,9 -17,8 -18,10 -17,8 -18,8 -18,9 -17,8 -17,8 -18,7 -18,8 -18,7 -18,7 -18,7 -18,6 -19,6 -18,5 -7,0 -8,1 -8,0 -7,1 -9,0 -7,0 -7,-1 -7,-1 -3,0 -5,-1 -6,0 -7,-1 -6,0 -5,-1 -4,0 -1,0 -2,-1 -4,0 -4,0 -6,-1 -7,-1 -8,-1 -9,-1 -10,-1 -11,-1 -11,-1 -12,-2 -14,-1 -13,-1 -14,-2 -14,-1 -15,-2 -15,-2 -15,-1 -15,-2 -16,-2 -15,-1 -15,-2 -15,-1 -15,-2 -14,-1 -15,-2 -14,-1 -13,-2 -12,-1 -12,-1 -11,-1 -11,-1 -9,-5 -7,-5 -5,-7 -3,-8 -3,-9 -2,-9 -2,-9 -1,-9 -4,-59 -1,-58 -1,-59 -4,-58 -1,-49 -3,-3 -3,-3 -4,-1 -4,0 -4,-5 -5,-6 -4,-5 -4,-6 -3,-5 -2,-6 -2,-6 0,-6 3,-9 3,-9 4,-9 4,-8 4,-9 5,-8 5,-7 6,-7 z"
         style="fill:#000000"
         inkscape:connector-curvature="0" />
      <path
         id="path3347"
         d="m 309,379 -252,-25 1,11 0,12 1,11 1,11 9,240 1,23 6,2 6,1 6,2 6,2 5,1 7,2 6,2 6,1 5,0 5,-1 5,0 6,0 5,1 5,0 5,0 4,1 12,1 12,2 13,1 12,2 13,2 12,1 12,1 12,2 13,1 12,1 13,2 12,1 13,1 12,1 13,1 12,2 13,1 12,1 12,1 13,1 12,1 13,1 12,1 13,1 12,1 13,1 12,0 12,1 13,1 12,1 13,1 12,0 0,0 2,-62 1,-91 2,-95 1,-71 -16,0 -18,0 -19,0 -20,-1 -22,-1 -20,-1 -21,-1 -21,-2 -19,-1 -18,-2 -16,-1 -14,-2 -12,-1 -8,0 -6,-1 -2,0 z"
         style="fill:#56aaff"
         inkscape:connector-curvature="0" />
      <path
         id="path3349"
         d="m 594,389 -3,1 -4,1 -3,0 -4,1 -5,0 -4,0 -5,1 -5,0 -1,71 -2,95 -1,91 -2,62 112,-41 17,-7 16,-7 17,-7 16,-8 17,-7 16,-8 17,-8 16,-8 17,-8 16,-8 16,-9 16,-9 15,-10 16,-9 15,-11 15,-10 5,-31 5,-31 4,-31 4,-32 5,-31 3,-31 4,-31 4,-30 0,-8 1,-7 0,-6 0,-8 -5,2 -6,2 -8,3 -9,3 -9,3 -10,4 -11,4 -13,5 -12,4 -13,5 -14,5 -14,5 -15,5 -14,6 -15,5 -15,5 -15,5 -15,6 -15,5 -14,5 -14,5 -14,5 -13,4 -13,4 -12,5 -11,4 -10,3 -10,4 -8,2 -8,3 -6,2 -5,1 z"
         style="fill:#075baf"
         inkscape:connector-curvature="0" />
      <path
         id="path3351"
         d="m 561,393 0,-4 0,-4 0,-3 0,-3 -4,0 -7,1 -8,-1 -10,0 -12,0 -13,-1 -15,-1 -15,0 -17,-1 -17,-1 -19,-1 -19,-1 -19,-2 -20,-1 -19,-1 -20,-2 -20,-1 -19,-2 -19,-1 -19,-1 -17,-1 -17,-2 -17,-1 -14,-1 -14,-1 -12,-1 -11,0 -10,-1 -7,-1 -5,0 -4,0 -1,0 -65,-12 0,4 1,3 0,3 0,3 252,25 2,0 6,1 8,0 12,1 14,2 16,1 18,2 19,1 21,2 21,1 20,1 22,1 20,1 19,0 18,0 16,0 z"
         style="fill:#166bbf"
         inkscape:connector-curvature="0" />
      <path
         id="path3353"
         d="m 960,246 -3,3 -217,74 -125,43 -6,3 -7,2 -6,2 -7,2 -7,1 -7,1 -7,1 -7,1 0,3 0,3 0,4 0,4 5,0 5,-1 4,0 5,0 4,-1 3,0 4,-1 3,-1 5,-1 6,-2 8,-3 8,-2 10,-4 10,-3 11,-4 12,-5 13,-4 13,-4 14,-5 14,-5 14,-5 15,-5 15,-6 15,-5 15,-5 15,-5 14,-6 15,-5 14,-5 14,-5 13,-5 12,-4 13,-5 11,-4 10,-4 9,-3 9,-3 8,-3 6,-2 5,-2 0,-3 0,-3 0,-4 0,-4 z"
         style="fill:#00267a"
         inkscape:connector-curvature="0" />
      <path
         id="path3355"
         d="m 271,586 0,-6 0,-6 -3,-4 -5,-3 -34,-8 0,-4 2,-2 2,-3 3,-2 2,1 2,1 2,2 2,1 2,1 2,1 2,2 2,1 0,-8 -1,-9 -2,-11 -2,-15 -11,-22 -11,-2 -6,0 -6,-1 -7,-1 -5,-1 -6,-2 -6,-2 -7,-2 -9,-3 0,6 8,9 2,10 -2,10 -4,10 -5,10 -4,11 -2,11 2,11 4,14 7,12 9,11 10,10 11,8 12,7 13,6 14,3 2,-4 3,-6 2,-7 3,-7 3,-7 4,-8 3,-7 3,-6 z"
         style="fill:#000000"
         inkscape:connector-curvature="0" />
      <path
         id="path3357"
         d="m 395,492 2,-4 2,-3 2,-3 3,-3 2,-3 2,-4 2,-4 1,-5 -3,-4 -3,-2 -3,0 -3,1 -4,2 -3,2 -4,2 -3,0 -6,-9 -6,-7 -8,-6 -7,-5 -8,-4 -8,-4 -8,-3 -9,-2 -7,-1 -8,0 -7,0 -7,1 -7,1 -7,1 -6,1 -6,2 -7,3 -6,3 -5,4 -6,4 -5,4 -5,6 -4,6 -5,6 39,42 7,-4 6,-3 5,-4 6,-3 5,-4 6,-3 6,-3 7,-3 5,7 -2,2 -2,2 -3,1 -2,1 -3,1 -2,1 -2,2 -2,2 7,4 11,2 12,1 12,0 12,0 9,0 8,0 2,1 15,-7 6,-8 z"
         style="fill:#000000"
         inkscape:connector-curvature="0" />
      <path
         id="path3359"
         d="m 415,509 -2,-3 -3,-2 -2,0 -2,2 -2,2 -3,2 -2,2 -3,2 -2,1 -3,1 -2,1 -3,1 -3,1 -3,2 -3,1 -2,0 -3,2 -3,2 -4,1 -3,0 -4,1 -3,2 -4,3 -5,4 4,11 1,11 -1,11 -3,13 -2,1 -3,-1 -4,0 -3,-2 -3,-1 -4,-2 -3,-1 -2,-1 1,-7 0,-8 -2,-6 -5,-5 -5,5 -4,5 -4,6 -3,5 -4,6 -4,6 -3,5 -4,6 -1,3 -1,4 0,6 1,6 1,2 1,5 2,5 1,3 3,5 2,4 1,4 1,3 1,3 2,4 2,4 4,5 5,1 2,-2 1,-4 2,-5 9,1 9,1 9,0 8,0 9,-1 8,-2 8,-4 7,-6 11,-15 8,-13 4,-12 3,-12 1,-11 1,-12 0,-11 2,-12 0,-7 0,-7 1,-9 1,-9 z"
         style="fill:#000000"
         inkscape:connector-curvature="0" />
      <path
         id="path3361"
         d="m 846,268 9,-3 8,-3 9,-3 8,-2 9,-3 9,-3 8,-3 9,-3 8,-3 8,-3 9,-4 8,-4 8,-4 8,-4 8,-4 8,-5 -1,-13 -1,-12 -2,-12 -6,-10 -3,0 -3,1 -3,1 -3,2 -3,2 -3,2 -3,2 -3,2 -12,4 -12,4 -12,4 -12,4 -13,4 -12,4 -12,5 -12,4 -12,5 -12,4 -12,4 -12,4 -12,5 -12,4 -12,4 -12,4 -12,4 -13,4 -12,4 -12,4 -12,4 -13,3 -12,4 -12,3 -12,3 -13,3 -12,3 -13,3 -12,3 -13,2 -13,3 -12,2 1,14 2,16 2,16 1,15 3,0 2,0 3,0 2,-1 3,0 2,0 3,0 3,0 16,-6 16,-6 17,-5 16,-6 16,-5 16,-5 17,-6 16,-6 17,-5 16,-6 17,-5 16,-6 17,-6 17,-5 17,-6 17,-6 z"
         style="fill:#075baf"
         inkscape:connector-curvature="0" />
      <ellipse
         id="ellipse3363"
         ry="24"
         rx="29"
         cy="469"
         cx="271"
         style="fill:#dbeaea"
         sodipodi:cx="271"
         sodipodi:cy="469"
         sodipodi:rx="29"
         sodipodi:ry="24"
         d="m 300,469 c 0,13.25483 -12.98374,24 -29,24 -16.01626,0 -29,-10.74517 -29,-24 0,-13.25483 12.98374,-24 29,-24 16.01626,0 29,10.74517 29,24 z" />
      <path
         id="path3365"
         d="m 379,470 1,1 3,0 2,0 3,0 3,0 3,0 2,0 2,0 -2,5 -2,3 -4,4 -4,4 -4,3 -4,3 -4,2 -3,1 -7,0 -8,0 -7,0 -7,1 -8,0 -6,1 -6,1 -5,1 0,-1 2,-2 3,-1 4,-2 3,-1 3,-1 2,-2 0,-1 -2,-7 -3,-6 -4,-7 -4,-6 -5,-6 -5,-6 -6,-6 -5,-6 14,-4 13,-1 10,2 9,5 9,7 8,7 8,8 8,7 z"
         style="fill:#edf4f4"
         inkscape:connector-curvature="0" />
      <path
         id="path3367"
         d="m 291,608 3,-4 2,-5 3,-4 2,-5 3,-5 2,-5 2,-5 3,-5 1,3 0,6 1,5 1,3 6,2 5,2 5,2 5,2 5,1 6,1 5,2 6,0 5,1 5,-1 6,0 5,-1 5,-2 5,-3 4,-3 5,-4 -1,8 -2,7 -3,7 -5,6 -5,6 -6,5 -6,5 -6,5 -5,2 -6,1 -6,1 -6,0 -6,-1 -6,-1 -7,0 -6,-1 -3,2 -1,5 -2,5 -3,3 -1,-4 -2,-5 -2,-6 -2,-7 -2,-6 -2,-6 -2,-5 -2,-4 z"
         style="fill:#edf4f4"
         inkscape:connector-curvature="0" />
      <path
         id="path3369"
         d="m 399,522 -1,9 0,9 -1,9 -1,8 -3,8 -4,7 -6,5 -9,4 -3,0 -4,-1 -3,0 -2,3 1,-11 -1,-10 -1,-10 -1,-10 5,-3 5,-3 5,-3 4,-2 5,-3 5,-2 5,-3 5,-1 z"
         style="fill:#dbeaea"
         inkscape:connector-curvature="0" />
      <path
         id="path3371"
         d="m 368,112 -274,95 -51,27 -3,5 -1,6 2,6 6,3 178,9 2,0 2,0 2,0 5,1 10,0 10,0 11,1 11,0 10,1 11,0 10,1 11,1 11,1 10,1 10,1 11,1 10,1 10,1 10,1 10,1 7,0 7,1 8,0 7,1 7,0 8,1 7,0 7,1 -7,-187 -5,0 -6,1 -5,1 -5,1 -5,1 -6,2 -5,1 -6,1 -5,2 -5,1 -5,2 -6,1 -5,1 -5,2 -5,1 -6,1 z"
         style="fill:#0054a8"
         inkscape:connector-curvature="0" />
      <path
         id="path3373"
         d="m 555,298 -4,0 -3,1 -4,0 -3,1 -4,0 -3,0 -4,1 -3,0 -7,0 -6,-1 -7,0 -6,0 -7,-1 -6,0 -6,0 -6,-1 -8,1 -8,0 -9,0 -9,0 -9,0 -10,0 -10,0 -10,0 -11,-1 -10,0 -10,0 -10,-1 -10,0 -9,-1 -8,0 -9,-1 -10,0 -10,-1 -8,0 -7,-1 -7,0 -7,0 -7,-1 -7,0 -8,0 -9,0 -10,0 -11,0 -14,0 -16,0 -18,0 -21,0 -18,0 -17,-1 -14,-1 -14,-2 -10,-1 -9,-2 -8,-2 -6,-2 -5,-2 -5,-2 -3,-2 -2,-2 -1,-2 -1,-2 -1,-1 0,-1 -2,-1 -2,0 -2,-1 -2,-1 -2,-2 -2,-1 -2,-1 -2,-2 -1,8 -2,7 -3,8 -2,8 -1,7 0,7 2,6 5,6 85,20 3,0 5,1 6,0 8,1 9,1 10,1 12,1 12,1 14,1 14,2 15,1 16,1 16,1 17,1 17,2 18,1 18,1 18,1 18,1 18,1 18,1 18,1 18,1 17,1 17,0 17,1 16,0 15,0 14,0 14,0 13,0 11,-1 -1,-15 -2,-16 -2,-16 -1,-14 z"
         style="fill:#56aaff"
         inkscape:connector-curvature="0" />
      <path
         id="path3375"
         d="m 156,292 21,0 18,0 16,0 14,0 11,0 10,0 9,0 8,0 7,0 7,1 7,0 7,0 7,1 8,0 10,1 10,0 9,1 8,0 9,1 10,0 10,1 10,0 10,0 11,1 10,0 10,0 10,0 9,0 9,0 9,0 8,0 8,-1 -21,-1 -20,-2 -21,-1 -20,-2 -20,-1 -21,-1 -19,-2 -21,-1 -20,-1 -20,-2 -20,-1 -20,-1 -20,-1 -21,-1 -20,-1 -21,0 -7,-1 -6,0 -7,0 -7,0 -7,0 -7,0 -7,-1 -7,0 -7,0 -7,-1 -7,-1 -7,-1 -6,-1 -7,-2 -7,-2 -6,-2 0,1 1,1 1,2 1,2 2,2 3,2 5,2 5,2 6,2 8,2 9,2 10,1 14,2 14,1 17,1 18,0 z"
         style="fill:#e0efff"
         inkscape:connector-curvature="0" />
      <path
         id="path3377"
         d="m 856,130 -8,-1 -8,-1 -9,-1 -10,-1 -10,-1 -11,-1 -11,-1 -13,-1 -5,0 -6,1 -6,0 -7,0 -6,0 -7,0 -8,0 -7,0 -8,0 -7,-1 -7,0 -8,0 -7,-1 -8,0 -7,0 -6,0 -8,0 -7,-1 -6,0 -5,-1 -4,0 -3,-1 -4,-1 -3,0 -3,-1 -4,-1 -4,-1 -5,-1 -6,0 -8,-1 -9,-1 -11,-1 -9,0 -9,-1 -8,-1 -8,-1 -8,-1 -6,-2 -7,-1 -6,-1 -6,-2 -5,-1 -4,-1 -5,-1 -3,-1 -3,-1 -3,-1 -2,-1 -2,0 -2,0 -2,-1 -1,0 -3,0 -4,0 -3,0 -2,0 -3,0 -3,0 -3,1 -3,0 7,187 14,0 13,1 13,0 13,0 13,0 13,0 13,-1 13,-1 12,-1 13,-2 13,-2 12,-2 12,-3 12,-4 12,-4 11,-5 19,-6 19,-6 19,-6 19,-6 19,-6 18,-6 20,-6 19,-7 18,-7 19,-7 19,-7 18,-7 19,-7 18,-8 17,-8 18,-8 -104,-18 z"
         style="fill:#4296ea"
         inkscape:connector-curvature="0" />
      <path
         id="path3379"
         d="m 666,121 6,0 7,0 8,0 7,1 8,0 7,0 7,1 8,0 7,0 8,0 7,0 6,0 7,0 6,0 6,-1 5,0 -19,-2 -20,-2 -22,-2 -21,-2 -22,-2 -21,-2 -22,-2 -21,-2 -20,-3 -20,-2 -18,-1 -16,-2 -16,-1 -13,-2 -12,-1 -9,-1 2,1 3,1 3,1 3,1 5,1 4,1 5,1 6,2 6,1 7,1 6,2 8,1 8,1 8,1 9,1 9,0 11,1 9,1 8,1 6,0 5,1 4,1 4,1 3,1 3,0 4,1 3,1 4,0 5,1 6,0 7,1 8,0 z"
         style="fill:#d1e8ff"
         inkscape:connector-curvature="0" />
      <path
         id="path3381"
         d="m 205,502 -2,-2 -2,0 -2,-2 -2,-3 5,2 4,1 5,2 5,2 5,1 4,2 5,2 5,2 2,8 1,7 1,7 1,7 -6,-1 -6,0 -4,1 -3,3 -3,3 -3,4 -4,3 -5,3 -3,9 -3,10 -4,10 -2,10 -8,-11 -3,-12 0,-11 2,-12 5,-12 5,-12 5,-11 5,-10 z"
         style="fill:#edf4f4"
         inkscape:connector-curvature="0" />
      <path
         id="path3383"
         d="m 255,584 -12,36 -4,0 -5,0 -3,-2 -4,-1 -4,-3 -3,-2 -4,-3 -3,-3 6,-34 36,12 z"
         style="fill:#dbeaea"
         inkscape:connector-curvature="0" />
      <path
         id="path3385"
         d="m 956,350 1,98 0,86 -2,61 0,24 0,9 -1,10 -1,9 -3,8 -3,8 -4,8 -4,7 -4,7 -4,2 -3,2 -4,2 -4,2 -4,1 -5,0 -4,0 -4,-2 -3,2 -3,2 -3,1 -4,-1 -1,-1 -3,3 -4,2 -4,1 -4,1 -4,0 -5,0 -4,1 -4,1 -3,-1 -4,0 -3,0 -3,-1 -4,0 -2,-1 -3,-1 -2,-2 -3,2 -3,1 -3,0 -3,-1 -2,-3 -4,-1 -4,1 -3,-1 -2,1 -1,0 -2,0 -2,-1 -3,0 -2,-1 -1,-1 -2,-1 -11,-4 -8,-5 -7,-6 -5,-7 -4,-8 -3,-8 -3,-9 -3,-10 -1,-15 -1,-38 -2,-55 -2,-65 -3,-67 -2,-62 -3,-51 -2,-31 3,-29 2,-31 4,-29 6,-29 6,-10 9,-9 11,-9 11,-9 12,-7 9,-6 7,-6 2,-3 1,-4 0,-3 -1,-2 -2,-3 -1,-2 -1,-2 1,-3 2,-4 0,-6 0,-5 -1,-4 -3,-4 0,-3 0,-7 0,-8 1,-6 5,-3 6,-2 6,-1 6,0 8,0 6,1 7,0 6,1 4,7 2,7 0,8 0,8 -4,4 -2,4 1,4 1,6 1,6 -2,5 -2,6 2,6 7,6 7,5 8,4 8,4 8,4 7,5 7,7 5,7 8,10 7,18 6,25 5,29 4,34 3,37 3,39 1,40 z"
         style="fill:#000000"
         inkscape:connector-curvature="0" />
      <path
         id="path3387"
         d="m 858,32 -3,-1 -4,-1 -5,-1 -6,0 -6,0 -6,1 -5,0 -4,1 -1,-3 0,-3 -1,-3 1,-8 4,-1 5,-1 6,-1 7,0 6,1 5,0 4,1 2,1 1,4 0,5 0,5 0,4 z"
         style="fill:#e5ffff"
         inkscape:connector-curvature="0" />
      <path
         id="path3389"
         d="m 892,690 0,-1 2,-2 1,-1 1,-1 2,1 -1,2 -1,0 -2,1 -2,1 z"
         style="fill:#60ff54"
         inkscape:connector-curvature="0" />
      <path
         id="path3391"
         d="m 855,53 -5,-1 -4,-1 -4,0 -4,0 -4,0 -4,1 -4,1 -5,1 1,-4 0,-3 0,-3 0,-3 4,-1 4,-1 4,-1 4,0 5,0 4,1 4,1 4,1 -1,3 0,2 0,3 1,4 z"
         style="fill:#60ff54"
         inkscape:connector-curvature="0" />
      <path
         id="path3393"
         d="m 823,691 0,-2 6,4 -1,0 -2,0 -1,-1 -2,-1 z"
         style="fill:#60ff54"
         inkscape:connector-curvature="0" />
      <path
         id="path3395"
         d="m 867,90 -4,-2 -3,-2 -3,-3 -2,-3 -2,-3 -2,-4 0,-4 0,-5 -3,-1 -4,0 -3,0 -4,-1 -3,1 -3,0 -3,1 -3,0 0,7 -2,7 -4,7 -6,5 -3,2 -4,2 -4,2 -3,2 -1,1 0,1 -1,2 0,1 -6,38 -2,65 -1,83 2,94 2,95 3,88 3,73 2,49 2,1 3,0 2,0 2,0 13,-10 3,0 3,1 3,1 2,1 2,3 2,3 1,3 1,3 4,0 3,0 3,0 4,0 3,0 4,0 3,0 4,0 -12,-554 2,-21 3,-15 4,-9 3,-5 z"
         style="fill:#38ff5b"
         inkscape:connector-curvature="0" />
      <path
         id="path3397"
         d="m 839,106 -2,14 -3,39 -3,56 3,68 2,49 2,109 1,112 -3,58 -1,0 -2,0 -2,0 -3,-1 -3,0 -3,-1 -2,-1 0,-1 -2,-67 -3,-154 0,-164 5,-100 0,-2 2,-3 3,-4 3,-5 4,-4 3,-3 3,1 1,4 z"
         style="fill:#9ef97f"
         inkscape:connector-curvature="0" />
      <path
         id="path3399"
         d="m 833,122 -1,-1 -2,-1 -4,-1 -4,-1 -4,0 -5,1 -5,3 -3,5 -1,10 -2,27 -2,37 -1,42 0,41 2,35 5,23 9,5 6,-12 4,-27 3,-35 2,-42 2,-40 1,-35 0,-25 0,-9 z"
         style="fill:#ffffff"
         inkscape:connector-curvature="0" />
      <path
         id="path3401"
         d="m 819,381 -2,-1 -4,0 -3,6 0,17 3,14 3,0 2,-6 1,-3 0,-27 z"
         style="fill:#ffffff"
         inkscape:connector-curvature="0" />
      <path
         id="path3403"
         d="m 941,655 1,-3 1,-3 0,-3 1,-2 2,-62 1,-107 0,-114 -4,-83 0,-3 0,-11 0,-16 -2,-19 -2,-22 -3,-23 -5,-23 -8,-22 -2,-5 -3,-5 -3,-4 -3,-4 -4,-4 -3,-3 -4,-3 -4,-3 -3,-3 -4,-3 -4,-2 -4,-2 -3,-2 -4,-2 -4,-2 -4,-2 -3,5 -4,9 -3,15 -2,21 12,554 2,0 2,-1 2,0 2,0 2,0 1,-1 1,0 1,-1 -2,-4 0,-2 2,-4 3,-6 4,-6 4,-5 5,-2 5,2 5,7 2,4 2,4 1,4 2,3 2,0 2,0 2,-1 2,-1 2,-1 2,-2 2,-1 1,-1 1,-9 2,-8 4,-6 6,-1 z"
         style="fill:#60ff54"
         inkscape:connector-curvature="0" />
      <path
         id="path3405"
         d="m 755,140 -5,25 -3,25 -2,26 -2,26 2,44 3,103 4,121 2,96 1,9 0,9 2,9 2,8 2,0 3,0 3,1 2,2 3,2 2,3 2,5 2,6 1,8 2,6 2,5 2,5 4,1 3,1 4,1 4,1 -2,-49 -3,-73 -3,-88 -2,-95 -2,-94 1,-83 2,-65 6,-38 0,-1 1,-2 0,-1 1,-1 -7,4 -7,4 -6,5 -5,5 -6,5 -4,6 -5,6 -4,7 z"
         style="fill:#60ff54"
         inkscape:connector-curvature="0" />
      <path
         id="path3407"
         d="m 759,641 1,5 1,4 2,5 2,4 2,3 2,4 3,3 2,3 2,4 3,3 3,2 3,3 -2,-5 -2,-5 -2,-6 -1,-8 -2,-6 -2,-5 -2,-3 -3,-2 -2,-2 -3,-1 -3,0 -2,0 z"
         style="fill:#2df451"
         inkscape:connector-curvature="0" />
      <path
         id="path3409"
         d="m 878,687 2,4 2,-3 2,-4 2,-4 3,-3 3,-1 4,-1 4,0 3,1 2,2 2,2 1,3 0,3 1,0 1,0 2,0 1,0 -2,-3 -1,-4 -2,-4 -2,-4 -5,-7 -5,-2 -5,2 -4,5 -4,6 -3,6 -2,4 0,2 z"
         style="fill:#2df451"
         inkscape:connector-curvature="0" />
      <path
         id="path3411"
         d="m 941,655 -6,1 -4,6 -2,8 -1,9 5,-5 3,-6 3,-7 2,-6 z"
         style="fill:#2df451"
         inkscape:connector-curvature="0" />
      <path
         id="path3413"
         d="m 797,112 -1,3 -2,10 -3,18 -4,27 -3,38 -2,50 -1,64 0,78 -1,5 -4,8 -4,0 -2,-19 -1,-25 0,-38 0,-47 1,-49 3,-48 5,-39 7,-27 12,-9 z"
         style="fill:#9ef97f"
         inkscape:connector-curvature="0" />
      <path
         id="path3415"
         d="m 761,640 1,0 2,0 2,1 3,1 4,4 3,6 3,9 2,13 1,1 1,3 2,4 2,3 3,1 -1,-2 -3,-4 -2,-4 -1,-3 0,-1 0,-5 0,-6 -2,-7 -3,-7 -4,-5 -7,-4 -9,0 0,0 1,1 1,1 1,0 z"
         style="fill:#e0fcd6"
         inkscape:connector-curvature="0" />
      <path
         id="path3417"
         d="m 807,666 0,-1 2,-3 3,-5 3,-5 3,-6 4,-4 4,-3 3,-1 4,2 3,4 2,6 3,6 2,7 2,5 1,4 0,1 3,0 0,-1 -1,-5 -1,-5 -2,-7 -2,-7 -4,-6 -4,-4 -5,-2 -6,1 -5,3 -4,5 -4,5 -2,6 -3,5 -1,3 0,1 2,1 z"
         style="fill:#ffffff"
         inkscape:connector-curvature="0" />
      <path
         id="path3419"
         d="m 877,672 0,-1 1,-4 2,-6 2,-7 2,-6 2,-6 3,-4 3,-1 3,1 3,4 3,5 3,5 3,6 1,5 2,3 0,2 2,0 0,-2 -1,-4 -2,-5 -2,-6 -3,-7 -3,-5 -4,-4 -6,-1 -4,2 -4,4 -3,6 -2,7 -2,7 -1,6 -1,5 0,1 3,0 z"
         style="fill:#ffffff"
         inkscape:connector-curvature="0" />
      <path
         id="path3421"
         d="m 827,650 -2,21 -2,0 -4,1 -5,2 -4,3 0,0 1,-2 2,-5 4,-5 3,-5 4,-5 2,-3 1,-2 z"
         style="fill:#60ff54"
         inkscape:connector-curvature="0" />
      <path
         id="path3423"
         d="m 831,653 1,1 4,4 4,8 4,15 -1,-1 -4,-3 -4,-2 -4,-2 0,-20 z"
         style="fill:#60ff54"
         inkscape:connector-curvature="0" />
      <ellipse
         id="ellipse3425"
         ry="19"
         rx="6"
         cy="666"
         cx="786"
         style="fill:#2df451"
         sodipodi:cx="786"
         sodipodi:cy="666"
         sodipodi:rx="6"
         sodipodi:ry="19"
         d="m 792,666 c 0,10.49341 -2.68629,19 -6,19 -3.31371,0 -6,-8.50659 -6,-19 0,-10.49341 2.68629,-19 6,-19 3.31371,0 6,8.50659 6,19 z" />
      <ellipse
         id="ellipse3427"
         ry="13"
         rx="7"
         cy="662"
         cx="886"
         style="fill:#2df451"
         sodipodi:cx="886"
         sodipodi:cy="662"
         sodipodi:rx="7"
         sodipodi:ry="13"
         d="m 893,662 c 0,7.1797 -3.13401,13 -7,13 -3.86599,0 -7,-5.8203 -7,-13 0,-7.1797 3.13401,-13 7,-13 3.86599,0 7,5.8203 7,13 z" />
      <path
         id="path3429"
         d="m 928,680 0,-2 0,-4 1,-6 1,-7 2,-7 3,-6 4,-3 5,-1 0,-5 -1,0 -3,1 -4,1 -5,3 -4,5 -3,7 -1,11 2,14 3,-1 z"
         style="fill:#e0fcd6"
         inkscape:connector-curvature="0" />
      <path
         id="path3431"
         d="m 816,682 0,-1 2,-2 3,-1 4,-2 4,-1 4,2 4,3 3,7 3,0 0,-1 0,-3 -2,-3 -2,-4 -4,-2 -5,-1 -7,2 -9,4 2,3 z"
         style="fill:#999999"
         inkscape:connector-curvature="0" />
      <path
         id="path3433"
         d="m 882,679 1,-2 2,-4 4,-3 6,0 3,-4 -1,0 -1,-1 -2,0 -3,1 -3,1 -3,2 -3,3 -3,5 3,2 z"
         style="fill:#999999"
         inkscape:connector-curvature="0" />
      <path
         id="path3435"
         d="m 929,670 0,7 3,-4 -3,-3 z"
         style="fill:#999999"
         inkscape:connector-curvature="0" />
      <ellipse
         id="ellipse3437"
         ry="2"
         rx="22"
         cy="58"
         cx="838"
         style="fill:#2df451"
         sodipodi:cx="838"
         sodipodi:cy="58"
         sodipodi:rx="22"
         sodipodi:ry="2"
         d="m 860,58 c 0,1.104569 -9.84974,2 -22,2 -12.15026,0 -22,-0.895431 -22,-2 0,-1.104569 9.84974,-2 22,-2 12.15026,0 22,0.895431 22,2 z" />
      <ellipse
         id="ellipse3439"
         ry="2"
         rx="14"
         cy="57"
         cx="835"
         style="fill:#ffffff"
         sodipodi:cx="835"
         sodipodi:cy="57"
         sodipodi:rx="14"
         sodipodi:ry="2"
         d="m 849,57 c 0,1.104569 -6.26801,2 -14,2 -7.73199,0 -14,-0.895431 -14,-2 0,-1.104569 6.26801,-2 14,-2 7.73199,0 14,0.895431 14,2 z" />
      <path
         id="path3441"
         d="m 835,38 0,2 0,4 0,4 -1,4 2,-1 0,-1 2,-3 0,-4 0,-5 -3,0 z"
         style="fill:#ffffff"
         inkscape:connector-curvature="0" />
      <ellipse
         id="ellipse3443"
         ry="4"
         rx="31"
         cy="89"
         cx="840"
         style="fill:#1e1e1e"
         sodipodi:cx="840"
         sodipodi:cy="89"
         sodipodi:rx="31"
         sodipodi:ry="4"
         d="m 871,89 c 0,2.209139 -13.87917,4 -31,4 -17.12083,0 -31,-1.790861 -31,-4 0,-2.209139 13.87917,-4 31,-4 17.12083,0 31,1.790861 31,4 z" />
      <path
         id="path3445"
         d="m 815,93 -1,1 -3,0 -4,2 -4,2 -5,2 -5,4 -5,4 -4,4 0,1 -1,1 0,1 2,0 2,-2 4,-2 4,-3 4,-4 5,-3 4,-3 4,-2 4,-1 4,0 0,-1 -2,-1 -3,0 z"
         style="fill:#00c623"
         inkscape:connector-curvature="0" />
      <path
         id="path3447"
         d="m 841,90 2,0 5,1 6,2 8,2 9,3 8,4 7,5 6,6 0,0 2,1 1,-1 -1,-2 -1,-1 -3,-2 -3,-4 -6,-3 -7,-4 -9,-3 -10,-3 -13,-2 -1,0 -1,0 0,1 1,0 z"
         style="fill:#00c623"
         inkscape:connector-curvature="0" />
      <ellipse
         id="ellipse3449"
         ry="1"
         rx="13"
         cy="82"
         cx="834"
         style="fill:#00c623"
         sodipodi:cx="834"
         sodipodi:cy="82"
         sodipodi:rx="13"
         sodipodi:ry="1"
         d="m 847,82 c 0,0.552285 -5.8203,1 -13,1 -7.1797,0 -13,-0.447715 -13,-1 0,-0.552285 5.8203,-1 13,-1 7.1797,0 13,0.447715 13,1 z" />
      <path
         id="path3451"
         d="m 843,67 0,3 0,5 1,6 2,3 4,0 4,1 3,1 1,0 -2,-2 -3,-5 -3,-7 -1,-5 -1,-3 -2,0 -3,1 0,2 z"
         style="fill:#60ff54"
         inkscape:connector-curvature="0" />
      <ellipse
         id="ellipse3453"
         ry="9"
         rx="2"
         cy="71"
         cx="833"
         style="fill:#ffffff"
         sodipodi:cx="833"
         sodipodi:cy="71"
         sodipodi:rx="2"
         sodipodi:ry="9"
         d="m 835,71 c 0,4.970563 -0.89543,9 -2,9 -1.10457,0 -2,-4.029437 -2,-9 0,-4.970563 0.89543,-9 2,-9 1.10457,0 2,4.029437 2,9 z" />
      <path
         id="path3455"
         d="m 555,826 -22,0 -21,-1 -20,-1 -21,-1 -19,-1 -18,-1 -17,-1 -16,-1 -15,-1 -13,0 -12,-1 -9,-1 -8,0 -6,-1 -4,0 -1,0 -9,0 -10,-2 -9,-2 -8,-3 -8,-3 -7,-4 -7,-4 -6,-5 -4,-8 -4,-8 -2,-8 4,-8 -3,-3 -2,-3 0,-4 1,-3 1,-1 -5,-7 -1,-9 0,-8 -1,-9 1,-6 0,-6 2,-6 3,-5 -2,-3 -1,-3 1,-4 1,-2 3,-3 1,-3 -1,-4 1,-3 0,-4 1,-4 1,-4 2,-3 4,-10 6,-8 6,-7 7,-5 8,-4 9,-3 10,-2 9,-3 1,0 3,0 4,0 7,0 7,0 9,0 10,1 12,0 13,0 13,0 14,0 15,0 16,0 16,0 17,0 16,0 17,0 17,1 17,0 16,0 17,0 16,0 15,0 15,0 14,0 13,0 12,0 11,0 11,0 8,0 7,0 6,0 7,1 7,1 7,0 8,1 7,1 8,1 7,1 7,1 8,1 7,1 8,1 7,2 7,1 7,2 7,2 7,2 10,7 9,9 9,11 8,12 6,12 6,10 5,7 4,2 3,1 3,0 3,-1 3,-1 2,-2 3,0 2,0 4,3 2,0 3,0 3,0 2,0 2,0 3,-1 2,-1 1,-2 1,0 2,0 4,0 3,1 4,0 4,0 4,1 3,1 4,11 1,12 -1,14 -2,13 -3,3 -4,1 -4,1 -4,0 -3,0 -4,0 -4,-1 -4,1 -2,-3 -2,-2 -2,-1 -2,0 -3,0 -2,0 -2,0 -3,1 -3,1 -3,0 -3,-1 -3,-2 -2,-1 -3,-1 -3,0 -4,1 -5,7 -6,8 -4,7 -5,8 -5,7 -5,8 -6,6 -8,5 -5,5 -8,4 -10,4 -12,3 -15,2 -16,3 -17,1 -19,2 -20,1 -21,1 -22,0 -22,0 -23,0 -24,0 -23,0 -23,-1 z"
         style="fill:#000000"
         inkscape:connector-curvature="0" />
      <path
         id="path3457"
         d="m 923,744 3,-7 1,-11 0,-12 -1,-9 2,0 1,-1 1,0 2,0 1,0 3,0 3,0 4,1 2,9 0,12 -1,12 -2,5 -2,1 -2,0 -3,0 -2,0 -3,0 -2,0 -2,0 -3,0 z"
         style="fill:#e5ffff"
         inkscape:connector-curvature="0" />
      <path
         id="path3459"
         d="m 265,749 2,1 1,1 1,1 1,1 -1,2 -1,-1 -1,-1 -1,-2 -1,-2 z"
         style="fill:#60ff54"
         inkscape:connector-curvature="0" />
      <path
         id="path3461"
         d="m 904,740 1,-9 0,-8 0,-8 -1,-9 3,1 3,0 3,0 3,0 2,8 0,9 -1,8 -2,8 -3,-1 -2,0 -3,0 -3,1 z"
         style="fill:#60ff54"
         inkscape:connector-curvature="0" />
      <path
         id="path3463"
         d="m 267,680 2,0 -4,7 0,-2 0,-1 1,-2 1,-2 z"
         style="fill:#60ff54"
         inkscape:connector-curvature="0" />
      <path
         id="path3465"
         d="m 865,750 2,-4 3,-3 2,-3 4,-2 3,-2 4,-1 4,-1 5,1 2,-7 1,-6 -1,-7 -1,-6 -4,0 -3,0 -4,-1 -3,-1 -3,-2 -3,-3 -3,-3 -3,-3 -1,-3 -2,-4 -2,-4 -2,-4 -1,-1 -1,0 -1,-1 -2,0 -6,-2 -9,-2 -10,-2 -12,-1 -14,-2 -15,-1 -18,-2 -18,-1 -20,-1 -20,-1 -21,-1 -22,-1 -23,0 -23,-1 -24,-1 -24,0 -24,-1 -23,0 -24,-1 -24,0 -23,0 -22,0 -22,-1 -21,0 -20,0 -19,0 -18,0 -16,0 -15,0 -13,0 -11,0 -10,0 0,2 -1,3 0,2 -1,2 9,13 0,4 -1,3 -1,3 -1,2 -3,2 -2,2 -3,0 -3,1 -1,7 0,7 -1,7 0,7 554,12 11,1 10,2 8,1 7,2 5,2 3,2 3,2 2,2 z"
         style="fill:#38ff5b"
         inkscape:connector-curvature="0" />
      <path
         id="path3467"
         d="m 850,722 -1,0 -2,-1 -5,-1 -6,-1 -8,-1 -8,-1 -11,-2 -11,-1 -13,-2 -13,-1 -15,-1 -15,-1 -16,0 -17,-1 -17,1 -18,0 -4,0 -10,0 -15,0 -20,0 -24,-1 -27,0 -28,-1 -30,-1 -30,0 -29,-1 -27,-1 -26,-2 -21,-1 -18,-1 -12,-2 -7,-1 0,-3 1,-5 1,-6 3,-3 1,0 4,0 5,0 9,1 9,0 12,0 13,0 14,1 17,0 17,0 18,1 19,1 20,0 21,1 21,0 21,1 21,1 22,0 21,1 21,1 21,1 20,1 19,0 19,1 17,1 17,1 15,1 14,1 11,2 11,1 8,1 6,1 2,1 3,2 5,3 4,4 4,3 2,4 -1,2 -4,2 z"
         style="fill:#9ef97f"
         inkscape:connector-curvature="0" />
      <path
         id="path3469"
         d="m 773,711 1,0 2,-2 2,-3 1,-4 0,-4 -2,-5 -5,-5 -9,-4 -1,0 -3,-1 -5,-1 -7,-1 -8,-1 -9,-1 -9,0 -9,-1 -9,0 -9,1 -7,1 -7,1 -6,3 -3,3 -1,5 1,5 2,3 4,2 6,2 7,2 8,1 8,2 9,0 10,1 9,1 9,0 8,0 7,0 6,0 5,0 3,0 1,0 z"
         style="fill:#ffffff"
         inkscape:connector-curvature="0" />
      <path
         id="path3471"
         d="m 298,800 3,1 2,1 3,0 3,1 4,1 5,0 7,1 7,0 8,1 9,0 11,1 11,1 11,0 13,1 12,1 14,1 14,0 14,1 14,1 15,0 14,1 15,1 14,0 15,1 14,1 14,0 14,1 13,0 13,0 12,0 12,1 11,0 10,0 9,-1 8,0 8,0 1,0 2,0 5,0 6,0 7,1 9,0 9,0 10,-1 11,0 11,-1 12,-1 12,-1 11,-2 12,-2 12,-3 10,-4 5,-2 5,-3 4,-2 4,-3 4,-4 4,-4 4,-3 3,-4 2,-3 3,-4 2,-3 2,-4 2,-4 2,-4 3,-4 2,-3 -2,-2 -3,-2 -3,-2 -5,-2 -7,-2 -8,-1 -10,-2 -11,-1 -554,-12 1,2 0,2 0,2 0,2 0,1 1,1 0,1 1,2 4,-2 1,0 5,3 5,3 6,4 4,4 2,5 -2,5 -7,4 -2,1 -2,1 -2,1 -2,1 -2,1 -2,0 -1,1 -2,1 1,4 1,4 2,4 2,4 5,0 4,1 4,1 4,2 3,2 2,2 2,2 0,4 z"
         style="fill:#60ff54"
         inkscape:connector-curvature="0" />
      <path
         id="path3473"
         d="m 820,636 -6,-2 -6,-1 -6,-2 -6,-1 -6,-2 -7,-1 -6,-1 -7,0 -6,-1 -6,-1 -7,-1 -6,0 -7,-1 -7,-1 -6,-1 -6,-1 -1,0 -2,0 -4,0 -5,0 -6,0 -8,0 -8,0 -10,0 -11,0 -11,0 -12,-1 -13,0 -14,0 -14,0 -14,0 -15,0 -15,0 -15,-1 -15,0 -16,0 -15,0 -15,0 -15,-1 -15,0 -14,0 -13,0 -14,0 -12,0 -12,-1 -11,0 -11,0 -9,0 -4,0 -4,0 -5,0 -4,0 -5,1 -4,0 -4,1 -5,1 0,2 0,3 -1,3 -1,2 -3,3 -4,2 -4,2 -6,1 -4,1 -4,1 -4,0 -3,1 -2,1 -3,1 -2,1 -2,1 -1,3 -2,3 -1,4 -1,4 10,0 11,0 13,0 15,0 16,0 18,0 19,0 20,0 21,0 22,1 22,0 23,0 24,0 24,1 23,0 24,1 24,0 24,1 23,1 23,0 22,1 21,1 20,1 20,1 18,1 18,2 15,1 14,2 12,1 10,2 9,2 6,2 2,0 1,1 1,0 1,1 -3,-7 -4,-6 -4,-6 -5,-6 -6,-6 -5,-5 -6,-5 -7,-4 z"
         style="fill:#60ff54"
         inkscape:connector-curvature="0" />
      <path
         id="path3475"
         d="m 319,618 -5,1 -4,1 -5,2 -4,1 -3,2 -4,2 -3,3 -3,3 -4,2 -3,2 -3,3 -2,3 2,-1 2,-1 3,-1 2,-1 3,-1 4,0 4,-1 4,-1 6,-1 4,-2 4,-2 3,-3 1,-2 1,-3 0,-3 0,-2 z"
         style="fill:#2df451"
         inkscape:connector-curvature="0" />
      <path
         id="path3477"
         d="m 269,735 -4,2 3,3 3,2 4,2 3,3 1,3 0,4 0,3 -1,3 -2,2 -2,2 -3,1 -3,0 0,1 0,1 0,2 0,1 2,-1 1,-1 2,0 2,-1 2,-1 2,-1 2,-1 2,-1 7,-4 2,-5 -2,-5 -4,-4 -6,-4 -5,-3 -5,-3 -1,0 z"
         style="fill:#2df451"
         inkscape:connector-curvature="0" />
      <ellipse
         id="ellipse3479"
         ry="7"
         rx="12"
         cy="793"
         cx="286"
         style="fill:#2df451"
         sodipodi:cx="286"
         sodipodi:cy="793"
         sodipodi:rx="12"
         sodipodi:ry="7"
         d="m 298,793 c 0,3.86599 -5.37258,7 -12,7 -6.62742,0 -12,-3.13401 -12,-7 0,-3.86599 5.37258,-7 12,-7 6.62742,0 12,3.13401 12,7 z" />
      <path
         id="path3481"
         d="m 846,679 0,0 -3,-1 -4,-1 -6,-2 -7,-1 -10,-2 -12,-3 -15,-2 -18,-2 -20,-3 -24,-2 -26,-2 -30,-2 -33,-2 -38,-2 -41,-1 -1,-1 -4,-1 -4,-2 -3,-2 -2,-2 2,-2 6,-1 13,0 10,0 15,0 17,1 21,1 22,0 24,2 25,1 25,2 24,2 23,3 21,3 18,4 15,4 12,4 7,6 1,6 z"
         style="fill:#9ef97f"
         inkscape:connector-curvature="0" />
      <path
         id="path3483"
         d="m 321,620 0,1 0,2 -1,2 -2,3 -4,4 -6,3 -10,2 -12,2 -2,1 -3,1 -3,1 -3,3 -1,2 1,-1 4,-2 4,-2 3,-1 1,0 5,1 6,-1 7,-1 7,-3 7,-4 3,-7 1,-9 0,0 -1,1 -1,1 0,1 z"
         style="fill:#e0fcd6"
         inkscape:connector-curvature="0" />
      <path
         id="path3485"
         d="m 292,665 1,0 4,2 4,3 5,3 5,4 5,4 3,4 0,4 -2,3 -4,3 -6,3 -6,2 -7,2 -5,1 -4,1 -1,0 -1,2 2,0 4,0 6,-1 7,-1 7,-3 6,-3 5,-4 2,-5 -1,-5 -3,-6 -5,-4 -5,-4 -5,-3 -5,-3 -3,-1 -2,-1 -1,3 z"
         style="fill:#ffffff"
         inkscape:connector-curvature="0" />
      <path
         id="path3487"
         d="m 283,734 1,1 4,1 6,2 7,2 6,3 6,3 4,3 2,3 -2,2 -4,3 -5,3 -6,2 -6,3 -5,1 -3,1 -2,1 0,2 1,0 4,-1 6,-1 6,-2 7,-3 6,-3 4,-4 1,-5 -2,-5 -4,-4 -6,-3 -7,-3 -7,-2 -6,-1 -4,-1 -2,0 0,2 z"
         style="fill:#ffffff"
         inkscape:connector-curvature="0" />
      <path
         id="path3489"
         d="m 307,686 -20,-4 0,-2 -1,-4 -1,-5 -4,-3 0,0 2,1 4,3 5,3 5,4 5,3 4,3 1,1 z"
         style="fill:#60ff54"
         inkscape:connector-curvature="0" />
      <ellipse
         id="ellipse3491"
         ry="6"
         rx="14"
         cy="695"
         cx="290"
         style="fill:#60ff54"
         sodipodi:cx="290"
         sodipodi:cy="695"
         sodipodi:rx="14"
         sodipodi:ry="6"
         d="m 304,695 c 0,3.31371 -6.26801,6 -14,6 -7.73199,0 -14,-2.68629 -14,-6 0,-3.31371 6.26801,-6 14,-6 7.73199,0 14,2.68629 14,6 z" />
      <ellipse
         id="ellipse3493"
         ry="5"
         rx="18"
         cy="645"
         cx="293"
         style="fill:#2df451"
         sodipodi:cx="293"
         sodipodi:cy="645"
         sodipodi:rx="18"
         sodipodi:ry="5"
         d="m 311,645 c 0,2.76142 -8.05887,5 -18,5 -9.94113,0 -18,-2.23858 -18,-5 0,-2.76142 8.05887,-5 18,-5 9.94113,0 18,2.23858 18,5 z" />
      <path
         id="path3495"
         d="m 306,752 -1,0 0,0 -2,0 -1,-1 -3,0 -2,-2 -4,-2 -3,-3 -1,-1 -3,-2 -3,-2 -3,-2 1,1 4,1 4,1 5,2 5,3 4,2 3,3 0,2 z"
         style="fill:#2df451"
         inkscape:connector-curvature="0" />
      <path
         id="path3497"
         d="m 273,785 2,0 4,1 6,1 7,1 7,3 6,3 3,4 1,5 4,1 0,-1 0,-4 -1,-4 -3,-4 -4,-5 -8,-3 -11,-2 -14,1 1,3 z"
         style="fill:#e0fcd6"
         inkscape:connector-curvature="0" />
      <path
         id="path3499"
         d="m 276,673 1,0 1,3 2,3 2,3 0,5 -2,4 -3,4 -7,3 0,2 1,0 3,0 3,-1 4,-3 2,-3 1,-5 -1,-8 -4,-9 -3,2 z"
         style="fill:#999999"
         inkscape:connector-curvature="0" />
      <path
         id="path3501"
         d="m 276,739 2,1 4,3 3,4 0,5 4,3 0,-2 0,-4 -3,-6 -8,-7 -2,3 z"
         style="fill:#999999"
         inkscape:connector-curvature="0" />
      <path
         id="path3503"
         d="m 283,787 -7,-1 4,4 3,-3 z"
         style="fill:#999999"
         inkscape:connector-curvature="0" />
      <ellipse
         id="ellipse3505"
         ry="21"
         rx="3"
         cy="722"
         cx="899"
         style="fill:#2df451"
         sodipodi:cx="899"
         sodipodi:cy="722"
         sodipodi:rx="3"
         sodipodi:ry="21"
         d="m 902,722 c 0,11.59798 -1.34315,21 -3,21 -1.65685,0 -3,-9.40202 -3,-21 0,-11.59798 1.34315,-21 3,-21 1.65685,0 3,9.40202 3,21 z" />
      <ellipse
         id="ellipse3507"
         ry="13"
         rx="2"
         cy="719"
         cx="900"
         style="fill:#ffffff"
         sodipodi:cx="900"
         sodipodi:cy="719"
         sodipodi:rx="2"
         sodipodi:ry="13"
         d="m 902,719 c 0,7.1797 -0.89543,13 -2,13 -1.10457,0 -2,-5.8203 -2,-13 0,-7.1797 0.89543,-13 2,-13 1.10457,0 2,5.8203 2,13 z" />
      <path
         id="path3509"
         d="m 918,720 -1,0 -4,0 -4,0 -4,-1 1,2 1,0 2,2 4,1 5,0 0,-4 z"
         style="fill:#ffffff"
         inkscape:connector-curvature="0" />
      <path
         id="path3511"
         d="m 866,692 2,6 1,15 0,20 -7,22 3,-5 2,-4 3,-11 2,-16 -3,-21 -3,-6 z"
         style="fill:#1e1e1e"
         inkscape:connector-curvature="0" />
      <path
         id="path3513"
         d="m 864,698 0,-1 -1,-3 -1,-4 -2,-4 -2,-6 -3,-5 -4,-4 -4,-4 0,-1 -2,0 0,0 0,1 1,2 2,4 3,4 3,4 4,5 2,5 2,4 1,4 0,4 1,0 1,-2 -1,-3 z"
         style="fill:#00c623"
         inkscape:connector-curvature="0" />
      <path
         id="path3515"
         d="m 866,724 0,1 -1,5 -2,7 -2,8 -3,8 -5,9 -5,7 -6,5 0,0 -1,2 0,1 3,-1 1,-1 2,-2 3,-4 4,-5 4,-7 4,-8 3,-11 3,-13 0,-1 -1,-1 0,0 -1,1 z"
         style="fill:#00c623"
         inkscape:connector-curvature="0" />
      <ellipse
         id="ellipse3517"
         ry="13"
         rx="2"
         cy="717"
         cx="874"
         style="fill:#00c623"
         sodipodi:cx="874"
         sodipodi:cy="717"
         sodipodi:rx="2"
         sodipodi:ry="13"
         d="m 876,717 c 0,7.1797 -0.89543,13 -2,13 -1.10457,0 -2,-5.8203 -2,-13 0,-7.1797 0.89543,-13 2,-13 1.10457,0 2,5.8203 2,13 z" />
      <path
         id="path3519"
         d="m 889,726 0,0 -2,0 -3,0 -3,0 -3,0 -3,1 -2,1 -1,1 0,4 -1,5 -1,2 0,1 1,0 1,-1 3,-2 2,-2 3,-2 4,-1 2,-1 3,0 3,0 0,-3 -1,-2 -2,-1 z"
         style="fill:#60ff54"
         inkscape:connector-curvature="0" />
      <ellipse
         id="ellipse3521"
         ry="2"
         rx="9"
         cy="717"
         cx="885"
         style="fill:#ffffff"
         sodipodi:cx="885"
         sodipodi:cy="717"
         sodipodi:rx="9"
         sodipodi:ry="2"
         d="m 894,717 c 0,1.10457 -4.02944,2 -9,2 -4.97056,0 -9,-0.89543 -9,-2 0,-1.10457 4.02944,-2 9,-2 4.97056,0 9,0.89543 9,2 z" />
    </g>
  </g>
</svg>
